<?xml version="1.0" standalone="no"?>
<!DOCTYPE svg PUBLIC "-//W3C//DTD SVG 20010904//EN"
 "http://www.w3.org/TR/2001/REC-SVG-20010904/DTD/svg10.dtd">
<svg version="1.0" xmlns="http://www.w3.org/2000/svg"
 width="558.000000pt" height="558.000000pt" viewBox="0 0 558.000000 558.000000"
 preserveAspectRatio="xMidYMid meet">
<metadata>
Created by potrace 1.11, written by Peter Selinger 2001-2013
</metadata>
<g transform="translate(0.000000,558.000000) scale(0.100000,-0.100000)"
fill="#000000" stroke="none">
<path d="M2618 5575 c-2 -2 -39 -6 -83 -9 -44 -4 -91 -8 -105 -11 -14 -2 -54
-9 -90 -15 -210 -36 -446 -102 -585 -165 -17 -7 -53 -23 -80 -35 -79 -34 -140
-64 -143 -72 -2 -5 -9 -8 -15 -8 -7 0 -50 -23 -96 -50 -46 -28 -86 -50 -88
-50 -2 0 -9 -4 -16 -10 -7 -5 -65 -48 -131 -95 -65 -47 -124 -91 -131 -98 -7
-7 -39 -34 -71 -62 -183 -157 -439 -462 -538 -640 -9 -16 -27 -48 -39 -70 -65
-114 -88 -160 -135 -270 -44 -104 -96 -247 -107 -295 -2 -8 -13 -46 -24 -83
-11 -38 -22 -81 -25 -95 -2 -15 -11 -63 -20 -107 -33 -176 -41 -273 -41 -495
0 -194 11 -359 30 -440 3 -14 8 -41 11 -60 10 -70 65 -282 95 -367 62 -178
133 -339 215 -483 47 -84 175 -275 213 -319 17 -19 28 -37 27 -40 -7 -12 -66
-147 -71 -161 -2 -6 0 -2 -105 -245 -44 -104 -89 -208 -99 -230 -10 -22 -38
-85 -61 -140 -23 -55 -47 -109 -53 -120 -43 -79 -15 -180 61 -216 43 -21 85
-22 172 -4 14 3 41 8 60 11 19 3 69 11 110 19 41 8 93 17 115 20 22 4 48 8 58
11 10 3 30 7 45 10 15 2 41 6 57 8 17 2 68 11 115 20 47 8 99 18 115 21 17 2
41 7 55 9 14 3 41 8 60 10 19 3 47 8 63 11 15 3 37 7 50 9 12 2 49 9 82 15 33
6 74 13 90 16 17 2 39 7 50 9 11 2 40 7 65 11 53 9 69 11 134 24 56 10 58 10
141 -17 68 -23 209 -62 240 -68 11 -2 36 -6 55 -9 19 -3 42 -8 51 -10 9 -3 34
-8 55 -10 20 -3 49 -7 63 -10 96 -15 160 -19 346 -19 209 -1 357 9 451 29 12
3 39 7 60 10 59 9 71 12 179 40 55 14 107 27 116 29 123 31 384 142 554 236
70 38 314 200 343 227 11 10 29 25 40 33 36 27 144 124 206 185 212 209 379
438 517 709 58 116 147 325 164 386 3 8 18 65 35 125 17 61 33 121 36 135 17
82 44 246 50 315 11 104 11 491 0 575 -39 324 -122 613 -252 885 -46 98 -155
289 -166 293 -4 2 -8 8 -8 13 0 7 -50 83 -83 124 -4 6 -24 33 -44 60 -135 183
-378 417 -583 561 -30 21 -56 42 -58 46 -2 5 -8 8 -14 8 -5 0 -28 13 -51 29
-82 56 -324 180 -452 231 -189 75 -456 145 -635 166 -19 2 -55 6 -80 9 -48 6
-467 15 -472 10z m395 -319 c391 -32 778 -163 1107 -374 52 -34 189 -131 200
-142 3 -3 32 -27 65 -55 70 -57 224 -211 275 -274 19 -23 40 -48 46 -54 14
-16 115 -154 139 -192 127 -195 242 -446 299 -655 45 -165 50 -185 48 -193 -2
-5 2 -25 7 -45 10 -37 15 -71 28 -192 13 -125 6 -551 -11 -578 -2 -4 -7 -33
-10 -65 -4 -32 -9 -64 -11 -70 -3 -7 -6 -23 -9 -37 -46 -255 -186 -588 -354
-840 -49 -74 -98 -144 -108 -155 -11 -11 -37 -43 -59 -70 -41 -52 -200 -213
-270 -275 -177 -156 -415 -304 -640 -400 -99 -42 -286 -108 -335 -117 -40 -8
-55 -11 -55 -13 0 -2 -21 -6 -69 -14 -21 -3 -41 -8 -45 -10 -3 -2 -26 -7 -51
-10 -25 -3 -54 -8 -66 -10 -127 -25 -508 -26 -654 -2 -8 2 -35 6 -60 10 -49 8
-55 9 -115 20 -74 14 -217 56 -331 97 -55 19 -74 18 -209 -6 -33 -6 -138 -24
-170 -29 -65 -11 -112 -19 -130 -22 -11 -3 -35 -7 -54 -10 -18 -3 -43 -8 -55
-10 -11 -2 -59 -11 -106 -19 -47 -8 -110 -19 -140 -24 -93 -18 -114 -21 -150
-26 -33 -5 -54 -8 -110 -20 -14 -3 -41 -7 -60 -9 -19 -2 -46 -7 -60 -10 -39
-9 -80 -15 -80 -12 0 5 29 75 49 121 10 22 51 117 91 210 40 94 81 188 91 210
62 141 100 240 100 268 2 54 -9 72 -109 192 -66 78 -202 296 -259 415 -48 100
-83 182 -83 195 0 8 -4 17 -10 20 -6 3 -10 17 -10 30 0 13 -4 26 -9 29 -4 3
-12 20 -16 38 -8 36 -11 45 -15 53 -1 3 -3 8 -4 13 -1 4 -9 32 -18 62 -9 30
-19 69 -21 87 -3 17 -7 35 -10 40 -3 4 -8 31 -12 58 -4 28 -9 59 -10 70 -27
169 -37 453 -21 576 3 24 8 71 11 104 4 33 8 67 10 75 2 8 7 31 10 50 4 29 15
79 20 100 1 3 5 23 10 45 4 22 10 45 14 50 3 6 7 20 9 33 3 25 65 208 89 262
44 101 149 305 194 374 241 378 563 671 963 875 286 147 582 230 906 256 41 4
76 7 77 8 4 5 255 -1 326 -7z"/>
<path d="M2545 4840 l-120 -5 0 -417 0 -418 256 0 257 0 -2 78 -1 77 -155 0
-155 0 -3 93 -3 92 93 1 c51 0 123 0 159 0 l66 0 1 69 c1 57 -2 71 -16 78 -9
4 -81 7 -159 6 l-143 -2 0 97 0 96 157 0 158 0 2 77 2 77 -137 3 c-75 2 -191
1 -257 -2z"/>
<path d="M3791 3700 l0 -421 97 3 97 3 0 330 c0 284 2 331 15 336 8 3 74 5
145 4 l130 -1 0 -334 0 -335 98 -3 97 -3 0 421 0 420 -339 0 -340 0 0 -420z"/>
<path d="M1289 4018 c0 -13 -1 -202 -2 -420 l-2 -397 94 -3 c80 -3 94 -1 100
14 3 9 6 62 5 117 0 95 1 101 20 102 12 0 64 1 116 3 149 4 238 54 293 167 65
131 24 303 -90 382 -72 50 -105 55 -327 57 l-206 1 -1 -23z m377 -148 c63 -21
102 -122 74 -190 -7 -17 -28 -44 -47 -59 -32 -27 -41 -29 -122 -29 l-87 -1 1
137 c0 75 3 142 7 147 8 12 132 9 174 -5z"/>
<path d="M2869 3283 c-6 -21 -15 -42 -19 -48 -5 -5 -8 -12 -8 -15 2 -7 -42
-139 -57 -175 -7 -16 -25 -66 -40 -110 -14 -44 -30 -89 -35 -100 -11 -28 -44
-118 -46 -130 -2 -5 -17 -48 -35 -95 -53 -143 -58 -131 61 -128 l103 3 15 48
c9 29 21 47 31 48 61 4 272 0 280 -6 6 -3 16 -26 22 -51 l11 -44 104 0 c61 0
104 4 104 10 0 9 -18 61 -40 115 -4 11 -13 36 -20 55 -7 19 -16 44 -21 55 -4
11 -15 40 -23 65 -8 25 -21 63 -29 85 -47 122 -157 434 -157 444 0 7 -30 11
-94 11 l-94 0 -13 -37z m130 -289 c11 -38 31 -109 46 -158 14 -48 23 -91 20
-95 -8 -8 -171 -10 -183 -2 -5 3 4 48 20 101 16 52 39 125 50 163 12 37 23 66
25 64 1 -2 12 -35 22 -73z"/>
<path d="M1219 2662 l-56 -3 0 -336 c1 -378 4 -363 -75 -363 -21 0 -38 -3 -39
-7 -1 -11 -1 -115 0 -136 1 -16 10 -17 94 -14 127 6 183 38 204 117 6 19 9
155 9 303 -1 147 1 267 4 268 28 5 234 3 243 -3 9 -5 12 -94 12 -335 0 -321 0
-328 20 -329 11 -1 36 -3 55 -4 19 -1 54 -2 78 -1 l42 1 -2 421 -3 420 -265 2
c-146 1 -290 1 -321 -1z"/>
<path d="M3842 2318 c3 -16 2 -28 -1 -28 -7 0 -4 -108 3 -126 3 -7 2 -15 -1
-18 -8 -7 -9 -106 -2 -106 4 0 4 -15 0 -32 -4 -18 -4 -47 0 -65 3 -18 4 -35 1
-37 -8 -9 -7 -106 1 -106 5 0 5 -5 2 -10 -5 -9 -7 -76 -4 -190 0 -8 0 -20 -1
-25 -1 -6 -2 -24 -1 -41 1 -28 4 -31 36 -32 115 -4 149 -2 154 6 3 6 6 89 6
186 0 97 3 176 7 176 4 0 8 -3 8 -8 0 -6 177 -259 207 -297 5 -5 16 -22 25
-37 17 -25 23 -27 93 -28 96 -1 94 -1 133 1 l33 2 -24 26 c-13 14 -84 105
-157 201 -74 96 -138 179 -144 183 -7 5 -4 12 9 20 40 24 113 105 141 157 30
56 72 88 111 85 12 -1 24 3 26 9 3 9 2 138 -2 158 0 4 -30 5 -65 3 -108 -6
-146 -36 -235 -184 -34 -57 -72 -112 -84 -122 -28 -23 -68 -33 -76 -20 -4 6
-6 78 -6 162 0 94 -4 153 -10 155 -5 2 -50 5 -98 6 l-89 3 4 -27z"/>
<path d="M2262 1719 c-16 -6 -17 -42 -17 -420 l0 -414 96 -3 96 -3 1 30 c0 17
16 54 35 83 49 75 134 208 197 310 30 48 57 87 60 88 3 0 5 -114 5 -252 l0
-253 98 -3 97 -3 0 421 0 421 -97 -3 -98 -3 -1 -30 c0 -20 -29 -74 -85 -160
-47 -71 -112 -172 -144 -222 -32 -51 -61 -91 -63 -88 -2 2 -5 115 -6 252 l-1
248 -78 5 c-43 3 -86 2 -95 -1z"/>
</g>
</svg>
