<svg width="231" height="69" viewBox="0 0 231 69" fill="none" xmlns="http://www.w3.org/2000/svg">
<path d="M222.258 68.6665H8.54839C3.84677 68.6665 0 64.804 0 60.0832V8.58318C0 3.86235 3.84677 -0.000153581 8.54839 -0.000153581H222.258C226.96 -0.000153581 230.806 3.86235 230.806 8.58318V60.0832C230.806 64.804 226.96 68.6665 222.258 68.6665Z" fill="black"/>
<path d="M222.258 -0.000153581H8.54839C3.84677 -0.000153581 0 3.86235 0 8.58318V60.0832C0 64.804 3.84677 68.6665 8.54839 68.6665H222.258C226.96 68.6665 230.806 64.804 230.806 60.0832V8.58318C230.806 3.86235 226.96 -0.000153581 222.258 -0.000153581ZM222.258 1.37318C226.218 1.37318 229.439 4.60807 229.439 8.58318V60.0832C229.439 64.059 226.218 67.2939 222.258 67.2939H8.54839C4.58946 67.2939 1.36774 64.059 1.36774 60.0832V8.58318C1.36774 4.60807 4.58946 1.37318 8.54839 1.37318H222.258Z" fill="#A6A6A6"/>
<path d="M182.826 51.4996H186.016V30.0392H182.826V51.4996ZM211.561 37.7697L207.904 47.0739H207.794L203.999 37.7697H200.562L206.254 50.774L203.009 58.0075H206.338L215.108 37.7697H211.561ZM193.469 49.0621C192.422 49.0621 190.966 48.5377 190.966 47.2395C190.966 45.5831 192.781 44.9481 194.348 44.9481C195.751 44.9481 196.409 45.2518 197.263 45.6664C197.015 47.6539 195.31 49.0621 193.469 49.0621V49.0621ZM193.853 37.3002C191.544 37.3002 189.152 38.3221 188.162 40.5861L190.993 41.773C191.598 40.5861 192.725 40.1991 193.908 40.1991C195.558 40.1991 197.235 41.1936 197.263 42.9605V43.1811C196.685 42.8498 195.449 42.353 193.936 42.353C190.884 42.353 187.776 44.0367 187.776 47.1844C187.776 50.0559 190.279 51.9059 193.082 51.9059C195.228 51.9059 196.409 50.9396 197.153 49.8078H197.263V51.4641H200.342V43.2361C200.342 39.4266 197.51 37.3002 193.853 37.3002V37.3002ZM174.137 40.3821H169.6V33.026H174.137C176.522 33.026 177.877 35.0088 177.877 36.704C177.877 38.3671 176.522 40.3821 174.137 40.3821ZM174.055 30.0392H166.411V51.4996H169.6V43.3689H174.055C177.591 43.3689 181.067 40.7986 181.067 36.704C181.067 32.6096 177.591 30.0392 174.055 30.0392ZM132.372 49.066C130.168 49.066 128.323 47.2132 128.323 44.6685C128.323 42.0969 130.168 40.2159 132.372 40.2159C134.548 40.2159 136.255 42.0969 136.255 44.6685C136.255 47.2132 134.548 49.066 132.372 49.066V49.066ZM136.035 38.9714H135.925C135.209 38.1142 133.831 37.3398 132.096 37.3398C128.46 37.3398 125.128 40.5478 125.128 44.6685C125.128 48.7617 128.46 51.9422 132.096 51.9422C133.831 51.9422 135.209 51.1676 135.925 50.2832H136.035V51.3339C136.035 54.1276 134.548 55.621 132.151 55.621C130.196 55.621 128.984 54.21 128.488 53.0211L125.706 54.1826C126.505 56.1185 128.626 58.4971 132.151 58.4971C135.897 58.4971 139.065 56.2841 139.065 50.8914V37.7824H136.035V38.9714ZM141.268 51.4996H144.463V30.0385H141.268V51.4996ZM149.173 44.4197C149.091 41.5985 151.349 40.1608 152.974 40.1608C154.242 40.1608 155.316 40.7965 155.673 41.71L149.173 44.4197ZM159.089 41.9862C158.484 40.354 156.637 37.3398 152.864 37.3398C149.118 37.3398 146.006 40.299 146.006 44.641C146.006 48.7342 149.09 51.9422 153.222 51.9422C156.555 51.9422 158.484 49.8955 159.282 48.7066L156.803 47.0469C155.977 48.264 154.847 49.066 153.222 49.066C151.597 49.066 150.44 48.3191 149.696 46.8538L159.419 42.8157L159.089 41.9862ZM81.6265 39.5801V42.6775H89.008C88.7876 44.4197 88.2092 45.6918 87.3277 46.5769C86.2539 47.6558 84.5736 48.8448 81.6265 48.8448C77.0816 48.8448 73.5288 45.1666 73.5288 40.6034C73.5288 36.0401 77.0816 32.3615 81.6265 32.3615C84.078 32.3615 85.8678 33.3297 87.1901 34.5743L89.366 32.3897C87.5207 30.6193 85.0691 29.2641 81.6265 29.2641C75.4014 29.2641 70.1682 34.353 70.1682 40.6034C70.1682 46.8538 75.4014 51.9422 81.6265 51.9422C84.987 51.9422 87.5208 50.8364 89.5036 48.7617C91.5419 46.7151 92.1757 43.839 92.1757 41.5161C92.1757 40.7965 92.1208 40.1334 92.01 39.5801H81.6265ZM100.568 49.066C98.3639 49.066 96.4632 47.2407 96.4632 44.641C96.4632 42.0136 98.3639 40.2159 100.568 40.2159C102.771 40.2159 104.672 42.0136 104.672 44.641C104.672 47.2407 102.771 49.066 100.568 49.066V49.066ZM100.568 37.3398C96.546 37.3398 93.2682 40.4096 93.2682 44.641C93.2682 48.8448 96.546 51.9422 100.568 51.9422C104.589 51.9422 107.867 48.8448 107.867 44.641C107.867 40.4096 104.589 37.3398 100.568 37.3398ZM116.49 49.066C114.287 49.066 112.386 47.2407 112.386 44.641C112.386 42.0136 114.287 40.2159 116.49 40.2159C118.694 40.2159 120.594 42.0136 120.594 44.641C120.594 47.2407 118.694 49.066 116.49 49.066ZM116.49 37.3398C112.469 37.3398 109.192 40.4096 109.192 44.641C109.192 48.8448 112.469 51.9422 116.49 51.9422C120.512 51.9422 123.789 48.8448 123.789 44.641C123.789 40.4096 120.512 37.3398 116.49 37.3398Z" fill="white"/>
<path d="M17.9684 55.6021L17.8413 55.48C17.3438 54.9514 17.0501 54.1307 17.0501 53.0679V53.318V15.3522C17.0501 15.3488 17.0501 15.3462 17.0501 15.3435C17.0501 15.3467 17.0501 15.3495 17.0501 15.3529V15.6037C17.0501 14.4529 17.3925 13.5859 17.9663 13.0661L39.1489 34.3348L17.9684 55.6021ZM17.0501 15.3414C17.0501 15.2468 17.0527 15.155 17.0574 15.0645C17.0527 15.1543 17.0501 15.2468 17.0501 15.3414ZM17.0574 15.0604C17.0574 15.0592 17.0574 15.0578 17.058 15.0564C17.0574 15.0578 17.0574 15.0592 17.0574 15.0604ZM17.058 15.0484C17.058 15.0477 17.058 15.047 17.058 15.0463C17.058 15.047 17.058 15.0477 17.058 15.0484Z" fill="url(#paint0_linear_2538_1045)"/>
<path d="M46.2086 41.6777L46.3697 41.5859L54.735 36.8134C55.5325 36.3581 56.0641 35.8062 56.3292 35.2222C56.0648 35.8062 55.5331 36.3588 54.735 36.8141L46.3697 41.5866L46.2086 41.6777V41.6777ZM46.2107 41.4262L39.1489 34.3343L46.21 27.2437L54.735 32.1066C55.8175 32.7243 56.4253 33.5203 56.5269 34.3337C56.5269 34.3343 56.5269 34.3357 56.5269 34.3369C56.4253 35.1484 55.8175 35.9451 54.735 36.5626L46.2107 41.4262" fill="url(#paint1_linear_2538_1045)"/>
<path d="M19.4784 56.4116C18.8866 56.4116 18.3703 56.2185 17.9677 55.8537L17.9684 55.853C18.371 56.2178 18.888 56.4116 19.4797 56.4116C19.531 56.4116 19.5832 56.4102 19.636 56.4077C19.5825 56.4102 19.5296 56.4116 19.4784 56.4116V56.4116ZM19.479 56.1601C18.8873 56.1608 18.371 55.967 17.9684 55.6022V55.6017L39.1489 34.3344L46.2107 41.4263L21.3944 55.5842C20.7078 55.9751 20.0573 56.1601 19.479 56.1601V56.1601ZM17.9624 55.8491C17.9249 55.8149 17.8882 55.7787 17.8521 55.7411L17.9624 55.8491Z" fill="url(#paint2_linear_2538_1045)"/>
<path d="M39.1489 34.3345L17.9663 13.0658C18.3689 12.7017 18.8846 12.5086 19.4756 12.5086C20.0554 12.5086 20.7064 12.6943 21.3944 13.0859L46.21 27.2438L39.1489 34.3345V34.3345ZM46.3697 27.0836L21.3944 12.8353C20.7064 12.4435 20.0554 12.2578 19.4756 12.2578C19.4729 12.2578 19.471 12.2578 19.4683 12.2578C19.4717 12.2578 19.4742 12.2578 19.4783 12.2578C20.0567 12.2578 20.7071 12.4429 21.3944 12.8346L46.3697 27.0836V27.0836Z" fill="url(#paint3_linear_2538_1045)"/>
<path d="M19.636 56.4077C20.1735 56.3768 20.7686 56.1911 21.3944 55.835L46.2086 41.6779L21.3944 55.835C20.7692 56.1918 20.1735 56.3768 19.636 56.4077V56.4077ZM17.9677 55.8537L17.9624 55.8491C17.9643 55.8505 17.9663 55.8524 17.9677 55.8537ZM17.8521 55.7411L17.8413 55.7305V55.7298C17.8454 55.7338 17.8487 55.7377 17.8521 55.7411Z" fill="black"/>
<path d="M46.2086 41.6777L46.3697 41.5859L46.2086 41.6777Z" fill="url(#paint4_linear_2538_1045)"/>
<path d="M19.4797 56.4116C18.888 56.4116 18.371 56.2178 17.9684 55.853L17.9677 55.8537C17.9663 55.8523 17.9643 55.8504 17.9624 55.8491L17.8521 55.7411C17.8487 55.7377 17.8454 55.7337 17.8413 55.7298L17.9684 55.6022C18.371 55.967 18.8873 56.1608 19.479 56.1601C20.0573 56.1601 20.7078 55.9751 21.3944 55.5842L46.2107 41.4263L46.3697 41.586L46.2086 41.6778L21.3944 55.835C20.7686 56.191 20.1735 56.3768 19.636 56.4077C19.5832 56.4102 19.531 56.4116 19.4797 56.4116" fill="url(#paint5_linear_2538_1045)"/>
<path d="M17.8413 55.7305C17.3438 55.2019 17.0501 54.3812 17.0501 53.3184V53.3177C17.0501 54.3812 17.3438 55.2012 17.8413 55.7298V55.7305" fill="black"/>
<path d="M17.8413 55.73C17.3438 55.2014 17.0501 54.3814 17.0501 53.3179V53.0678C17.0501 54.1306 17.3438 54.9513 17.8413 55.4799L17.9684 55.6019L17.8413 55.73" fill="url(#paint6_linear_2538_1045)"/>
<path d="M17.8413 55.73L17.9684 55.6019V55.6024L17.8413 55.73" fill="url(#paint7_linear_2538_1045)"/>
<path d="M56.3292 35.2222C56.4607 34.9324 56.5269 34.6347 56.5269 34.3369C56.5269 34.3364 56.5269 34.3357 56.5269 34.3357C56.5269 34.634 56.4607 34.9317 56.3292 35.2222Z" fill="black"/>
<path d="M46.3697 41.5859L46.2107 41.4263L54.735 36.5626C55.8175 35.9451 56.4253 35.1484 56.5269 34.337C56.5269 34.6348 56.4607 34.9325 56.3292 35.2223C56.0641 35.8063 55.5325 36.3582 54.735 36.8134L46.3697 41.5859Z" fill="url(#paint8_linear_2538_1045)"/>
<path d="M56.5269 34.3345V34.3338C56.5262 33.4358 55.9285 32.538 54.735 31.8566L46.3697 27.0841H46.369L46.3697 27.0836L54.735 31.856C55.9299 32.5373 56.5283 33.4365 56.5269 34.3345Z" fill="#404040"/>
<path d="M56.5269 34.334C56.4253 33.5206 55.8176 32.7246 54.735 32.107L46.21 27.244L46.369 27.0843H46.3697L54.735 31.8568C55.9285 32.5382 56.5262 33.436 56.5269 34.334Z" fill="url(#paint9_linear_2538_1045)"/>
<path d="M17.0501 15.3433C17.0501 15.3426 17.0501 15.3419 17.0501 15.3412C17.0501 15.3419 17.0501 15.3426 17.0501 15.3433ZM17.0574 15.0643C17.0574 15.0629 17.0574 15.0616 17.0574 15.0602C17.0574 15.0616 17.0574 15.0629 17.0574 15.0643ZM17.058 15.0562C17.058 15.0535 17.058 15.0509 17.058 15.0482C17.058 15.0509 17.058 15.0535 17.058 15.0562ZM17.058 15.0461C17.1569 13.2826 18.112 12.2639 19.463 12.2579C18.8772 12.2613 18.3671 12.4545 17.9677 12.8158V12.8151L17.9629 12.8199C17.9208 12.858 17.8808 12.8984 17.8413 12.9399C17.3925 13.4166 17.1094 14.1308 17.058 15.0461Z" fill="#404040"/>
<path d="M17.0501 15.6035V15.3527C17.0501 15.3493 17.0501 15.3465 17.0501 15.3433C17.0501 15.3426 17.0501 15.3419 17.0501 15.3412C17.0501 15.2466 17.0527 15.1541 17.0574 15.0643C17.0574 15.0629 17.0574 15.0616 17.0574 15.0602C17.0574 15.059 17.0574 15.0576 17.058 15.0562C17.058 15.0535 17.058 15.0509 17.058 15.0482C17.058 15.0475 17.058 15.0468 17.058 15.0461C17.1094 14.1308 17.3925 13.4167 17.8413 12.9399L17.9663 13.0659C17.3925 13.5857 17.0501 14.4527 17.0501 15.6035V15.6035ZM17.9629 12.8199L17.9677 12.8151C17.9663 12.8172 17.9643 12.8186 17.9629 12.8199Z" fill="url(#paint10_linear_2538_1045)"/>
<path d="M46.21 27.2437L21.3944 13.0858C20.7064 12.6942 20.0554 12.5085 19.4756 12.5085C18.8846 12.5085 18.3689 12.7016 17.9663 13.0657L17.8413 12.9397C17.8808 12.8982 17.9208 12.8578 17.9629 12.8197C17.9643 12.8183 17.9663 12.817 17.9677 12.8156C18.3671 12.4542 18.8772 12.2611 19.463 12.2577C19.4643 12.2577 19.4662 12.2577 19.4683 12.2577C19.471 12.2577 19.4729 12.2577 19.4756 12.2577C20.0554 12.2577 20.7064 12.4434 21.3944 12.8352L46.3697 27.0835L46.369 27.084L46.21 27.2437Z" fill="url(#paint11_linear_2538_1045)"/>
<path d="M74.0674 15.7881C74.0674 15.4098 73.9193 15.1136 73.623 14.8994C73.3268 14.6807 72.9349 14.5713 72.4473 14.5713C72.0098 14.5713 71.6452 14.6807 71.3535 14.8994C71.0664 15.1136 70.9229 15.3939 70.9229 15.7402H68.8721C68.8721 15.2025 69.0225 14.7194 69.3232 14.291C69.6286 13.8581 70.0592 13.5208 70.6152 13.2793C71.1758 13.0378 71.7865 12.917 72.4473 12.917C73.5957 12.917 74.4958 13.1631 75.1475 13.6553C75.7992 14.1475 76.125 14.8447 76.125 15.7471C76.125 16.1891 75.9906 16.5993 75.7217 16.9775C75.4574 17.3558 75.0791 17.6589 74.5869 17.8867C75.1338 18.0781 75.5531 18.3698 75.8447 18.7617C76.1364 19.1491 76.2822 19.6322 76.2822 20.2109C76.2822 21.1042 75.9313 21.8151 75.2295 22.3438C74.5322 22.8678 73.6048 23.1299 72.4473 23.1299C71.7227 23.1299 71.071 23.0068 70.4922 22.7607C69.9134 22.5101 69.4736 22.1706 69.1729 21.7422C68.8766 21.3092 68.7285 20.8079 68.7285 20.2383H70.793C70.793 20.5938 70.9479 20.8923 71.2578 21.1338C71.5677 21.3708 71.9642 21.4893 72.4473 21.4893C72.9941 21.4893 73.4248 21.3662 73.7393 21.1201C74.0583 20.874 74.2178 20.5618 74.2178 20.1836C74.2178 19.6641 74.0765 19.2926 73.7939 19.0693C73.5114 18.8415 73.099 18.7275 72.5566 18.7275H71.333V17.1211H72.5977C73.5775 17.1074 74.0674 16.6631 74.0674 15.7881ZM83.4189 20.9492H79.8232L79.1396 23H76.959L80.6641 13.0469H82.5645L86.29 23H84.1094L83.4189 20.9492ZM80.377 19.2881H82.8652L81.6143 15.5625L80.377 19.2881ZM93.748 14.708H89.2842V23H87.2334V13.0469H93.748V14.708ZM97.0771 19.4932V23H95.0264V13.0469H98.9092C99.6566 13.0469 100.313 13.1836 100.878 13.457C101.448 13.7305 101.885 14.1201 102.19 14.626C102.496 15.1273 102.648 15.6992 102.648 16.3418C102.648 17.3171 102.313 18.0872 101.644 18.6523C100.978 19.2129 100.055 19.4932 98.875 19.4932H97.0771ZM97.0771 17.832H98.9092C99.4515 17.832 99.8639 17.7044 100.146 17.4492C100.434 17.194 100.577 16.8294 100.577 16.3555C100.577 15.8678 100.434 15.4736 100.146 15.1729C99.8594 14.8721 99.4629 14.7171 98.957 14.708H97.0771V17.832ZM107.796 17.75L109.607 13.0469H111.822L108.343 21.2568L108.062 21.7969C107.548 22.6947 106.759 23.1436 105.697 23.1436L104.979 23.1162L104.959 21.4688C105.068 21.487 105.246 21.4961 105.492 21.4961C105.779 21.4961 106.009 21.446 106.183 21.3457C106.36 21.2454 106.508 21.0609 106.627 20.792L106.88 20.1426L103.387 13.0469H105.595L107.796 17.75ZM117.817 15.7881C117.817 15.4098 117.669 15.1136 117.373 14.8994C117.077 14.6807 116.685 14.5713 116.197 14.5713C115.76 14.5713 115.395 14.6807 115.104 14.8994C114.816 15.1136 114.673 15.3939 114.673 15.7402H112.622C112.622 15.2025 112.772 14.7194 113.073 14.291C113.379 13.8581 113.809 13.5208 114.365 13.2793C114.926 13.0378 115.536 12.917 116.197 12.917C117.346 12.917 118.246 13.1631 118.897 13.6553C119.549 14.1475 119.875 14.8447 119.875 15.7471C119.875 16.1891 119.741 16.5993 119.472 16.9775C119.207 17.3558 118.829 17.6589 118.337 17.8867C118.884 18.0781 119.303 18.3698 119.595 18.7617C119.886 19.1491 120.032 19.6322 120.032 20.2109C120.032 21.1042 119.681 21.8151 118.979 22.3438C118.282 22.8678 117.355 23.1299 116.197 23.1299C115.473 23.1299 114.821 23.0068 114.242 22.7607C113.663 22.5101 113.224 22.1706 112.923 21.7422C112.627 21.3092 112.479 20.8079 112.479 20.2383H114.543C114.543 20.5938 114.698 20.8923 115.008 21.1338C115.318 21.3708 115.714 21.4893 116.197 21.4893C116.744 21.4893 117.175 21.3662 117.489 21.1201C117.808 20.874 117.968 20.5618 117.968 20.1836C117.968 19.6641 117.826 19.2926 117.544 19.0693C117.261 18.8415 116.849 18.7275 116.307 18.7275H115.083V17.1211H116.348C117.327 17.1074 117.817 16.6631 117.817 15.7881ZM127.518 13.0469H129.575V23H127.518V16.3896L123.532 23H121.481V13.0469H123.532V19.6709L127.518 13.0469ZM138.64 14.708H135.591V23H133.54V14.708H130.532V13.0469H138.64V14.708ZM145.804 18.6865H141.866V21.3525H146.487V23H139.815V13.0469H146.474V14.708H141.866V17.0801H145.804V18.6865ZM159.277 23H157.227V18.7344H153.228V23H151.177V13.0469H153.228V17.0801H157.227V13.0469H159.277V23ZM166.817 20.9492H163.222L162.538 23H160.357L164.062 13.0469H165.963L169.688 23H167.508L166.817 20.9492ZM163.775 19.2881H166.264L165.013 15.5625L163.775 19.2881Z" fill="white"/>
<defs>
<linearGradient id="paint0_linear_2538_1045" x1="37.2706" y1="14.9517" x2="8.4609" y2="43.6441" gradientUnits="userSpaceOnUse">
<stop stop-color="#00A0FF"/>
<stop offset="0.00657445" stop-color="#00A1FF"/>
<stop offset="0.2601" stop-color="#00BEFF"/>
<stop offset="0.5122" stop-color="#00D2FF"/>
<stop offset="0.7604" stop-color="#00DFFF"/>
<stop offset="1" stop-color="#00E3FF"/>
</linearGradient>
<linearGradient id="paint1_linear_2538_1045" x1="57.8459" y1="34.3354" x2="16.4769" y2="34.3354" gradientUnits="userSpaceOnUse">
<stop stop-color="#FFE000"/>
<stop offset="0.4087" stop-color="#FFBD00"/>
<stop offset="0.7754" stop-color="#FFA500"/>
<stop offset="1" stop-color="#FF9C00"/>
</linearGradient>
<linearGradient id="paint2_linear_2538_1045" x1="42.4462" y1="38.2747" x2="3.37805" y2="77.1837" gradientUnits="userSpaceOnUse">
<stop stop-color="#FF3A44"/>
<stop offset="1" stop-color="#C31162"/>
</linearGradient>
<linearGradient id="paint3_linear_2538_1045" x1="12.476" y1="0.302247" x2="29.9215" y2="17.6767" gradientUnits="userSpaceOnUse">
<stop stop-color="#32A071"/>
<stop offset="0.0685" stop-color="#2DA771"/>
<stop offset="0.4762" stop-color="#15CF74"/>
<stop offset="0.8009" stop-color="#06E775"/>
<stop offset="1" stop-color="#00F076"/>
</linearGradient>
<linearGradient id="paint4_linear_2538_1045" x1="57.8454" y1="34.335" x2="16.4781" y2="34.335" gradientUnits="userSpaceOnUse">
<stop stop-color="#CCB300"/>
<stop offset="0.4087" stop-color="#CC9700"/>
<stop offset="0.7754" stop-color="#CC8400"/>
<stop offset="1" stop-color="#CC7D00"/>
</linearGradient>
<linearGradient id="paint5_linear_2538_1045" x1="42.4462" y1="38.2747" x2="3.37804" y2="77.1837" gradientUnits="userSpaceOnUse">
<stop stop-color="#CC2E36"/>
<stop offset="1" stop-color="#9C0E4E"/>
</linearGradient>
<linearGradient id="paint6_linear_2538_1045" x1="37.2706" y1="14.9516" x2="8.46085" y2="43.6439" gradientUnits="userSpaceOnUse">
<stop stop-color="#008DE0"/>
<stop offset="0.00657445" stop-color="#008DE0"/>
<stop offset="0.2601" stop-color="#00A7E0"/>
<stop offset="0.5122" stop-color="#00B8E0"/>
<stop offset="0.7604" stop-color="#00C4E0"/>
<stop offset="1" stop-color="#00C7E0"/>
</linearGradient>
<linearGradient id="paint7_linear_2538_1045" x1="42.4462" y1="38.2744" x2="3.37703" y2="77.1836" gradientUnits="userSpaceOnUse">
<stop stop-color="#E0333C"/>
<stop offset="1" stop-color="#AB0F56"/>
</linearGradient>
<linearGradient id="paint8_linear_2538_1045" x1="57.8459" y1="34.3354" x2="16.4768" y2="34.3354" gradientUnits="userSpaceOnUse">
<stop stop-color="#E0C500"/>
<stop offset="0.4087" stop-color="#E0A600"/>
<stop offset="0.7754" stop-color="#E09100"/>
<stop offset="1" stop-color="#E08900"/>
</linearGradient>
<linearGradient id="paint9_linear_2538_1045" x1="57.8459" y1="34.3357" x2="16.4769" y2="34.3357" gradientUnits="userSpaceOnUse">
<stop stop-color="#FFE840"/>
<stop offset="0.4087" stop-color="#FFCE40"/>
<stop offset="0.7754" stop-color="#FFBC40"/>
<stop offset="1" stop-color="#FFB540"/>
</linearGradient>
<linearGradient id="paint10_linear_2538_1045" x1="37.2706" y1="14.9515" x2="8.46088" y2="43.6439" gradientUnits="userSpaceOnUse">
<stop stop-color="#40B8FF"/>
<stop offset="0.00657445" stop-color="#40B9FF"/>
<stop offset="0.2601" stop-color="#40CEFF"/>
<stop offset="0.5122" stop-color="#40DDFF"/>
<stop offset="0.7604" stop-color="#40E7FF"/>
<stop offset="1" stop-color="#40EAFF"/>
</linearGradient>
<linearGradient id="paint11_linear_2538_1045" x1="12.476" y1="0.302114" x2="29.9215" y2="17.6766" gradientUnits="userSpaceOnUse">
<stop stop-color="#65B895"/>
<stop offset="0.0685" stop-color="#62BD95"/>
<stop offset="0.4762" stop-color="#50DB97"/>
<stop offset="0.8009" stop-color="#44ED98"/>
<stop offset="1" stop-color="#40F498"/>
</linearGradient>
</defs>
</svg>
