<svg width="237" height="80" viewBox="0 0 237 80" fill="none" xmlns="http://www.w3.org/2000/svg">
<path d="M218.127 0.000259999H18.8839C18.1576 0.000259999 17.44 0.000259999 16.7157 0.00425999C16.1094 0.00825997 15.5078 0.0198799 14.8957 0.0296599C13.5658 0.0454635 12.239 0.163612 10.9269 0.383079C9.61658 0.607323 8.34735 1.03009 7.16208 1.63707C5.97827 2.2492 4.89659 3.04459 3.95628 3.99439C3.01103 4.94152 2.22309 6.03627 1.62276 7.23656C1.02077 8.43445 0.603354 9.71811 0.384919 11.0432C0.164407 12.3666 0.0457474 13.7053 0.0300052 15.0472C0.0116258 15.6604 0.00968486 16.2756 0 16.8889V63.1173C0.00968486 63.7383 0.0116258 64.3399 0.0300052 64.961C0.0457522 66.3029 0.164412 67.6415 0.384919 68.9648C0.602751 70.2907 1.02019 71.5751 1.62276 72.7734C2.22282 73.9698 3.01086 75.0601 3.95628 76.002C4.89302 76.956 5.97541 77.752 7.16208 78.3594C8.34734 78.968 9.61643 79.3933 10.9269 79.621C12.2392 79.8387 13.5659 79.9569 14.8957 79.9746C15.5078 79.9882 16.1094 79.996 16.7157 79.996C17.44 80 18.1576 80 18.8839 80H218.127C218.839 80 219.562 80 220.274 79.996C220.877 79.996 221.496 79.9882 222.1 79.9746C223.427 79.9579 224.751 79.8396 226.061 79.621C227.375 79.3917 228.649 78.9665 229.84 78.3594C231.026 77.7516 232.107 76.9557 233.043 76.002C233.986 75.0565 234.776 73.9669 235.383 72.7734C235.981 71.5742 236.395 70.2899 236.609 68.9648C236.83 67.6413 236.953 66.303 236.977 64.961C236.985 64.3399 236.985 63.7383 236.985 63.1173C237 62.3907 237 61.6681 237 60.9297V19.0725C237 18.34 237 17.6135 236.985 16.8889C236.985 16.2756 236.985 15.6604 236.977 15.0471C236.953 13.7051 236.83 12.3667 236.609 11.0431C236.394 9.71879 235.981 8.43524 235.383 7.23648C234.161 4.83064 232.222 2.8723 229.84 1.63689C228.649 1.03139 227.375 0.608739 226.061 0.382899C224.751 0.162465 223.427 0.0442754 222.1 0.0293799C221.496 0.0196199 220.877 0.00789997 220.274 0.00399999C219.562 0 218.839 0 218.127 0V0.000259999Z" fill="#A6A6A6"/>
<path d="M16.7254 78.2497C16.1219 78.2497 15.5331 78.2419 14.9344 78.2283C13.6941 78.212 12.4568 78.103 11.2325 77.9021C10.0909 77.7036 8.98495 77.3343 7.95121 76.8064C6.92696 76.2828 5.99275 75.5963 5.18439 74.7732C4.36433 73.9597 3.68159 73.0163 3.16323 71.9802C2.63915 70.9374 2.27646 69.8196 2.08779 68.6658C1.88404 67.426 1.7738 66.1724 1.75803 64.9158C1.74547 64.494 1.72903 63.0896 1.72903 63.0896V16.8886C1.72903 16.8886 1.74654 15.5058 1.75813 15.0996C1.77323 13.8449 1.88283 12.5933 2.08597 11.3554C2.27499 10.1985 2.63796 9.07747 3.16231 8.03124C3.67877 6.99587 4.35772 6.05171 5.17284 5.23535C5.98705 4.41123 6.92424 3.7212 7.95024 3.19042C8.9816 2.66418 10.0854 2.29746 11.2247 2.10254C12.453 1.89967 13.6947 1.78999 14.9392 1.77442L16.7263 1.75H220.264L222.072 1.7754C223.306 1.7902 224.536 1.8989 225.753 2.10058C226.904 2.29795 228.019 2.66723 229.062 3.19628C231.118 4.26596 232.79 5.95831 233.845 8.03612C234.361 9.07513 234.719 10.187 234.905 11.3339C235.111 12.5819 235.226 13.8434 235.25 15.1084C235.255 15.6748 235.255 16.2832 235.255 16.8886C235.271 17.6386 235.271 18.3525 235.271 19.0722V60.9294C235.271 61.656 235.271 62.365 235.255 63.0798C235.255 63.7302 235.255 64.326 235.248 64.9392C235.225 66.1815 235.111 67.4205 234.909 68.6462C234.724 69.8083 234.364 70.9348 233.84 71.9862C233.318 73.011 232.639 73.9463 231.828 74.7576C231.019 75.5851 230.083 76.2756 229.057 76.8026C228.016 77.3345 226.903 77.7052 225.753 77.9021C224.529 78.1041 223.291 78.2131 222.051 78.2283C221.471 78.2419 220.864 78.2497 220.274 78.2497L218.127 78.2537L16.7254 78.2497Z" fill="black"/>
<path d="M49.0559 40.6016C49.0772 38.9323 49.5162 37.2955 50.3323 35.8436C51.1483 34.3917 52.3148 33.1718 53.7231 32.2975C52.8284 31.0072 51.6481 29.9453 50.276 29.1962C48.9038 28.4471 47.3776 28.0314 45.8185 27.9822C42.4927 27.6296 39.2684 29.9918 37.5737 29.9918C35.8461 29.9918 33.2367 28.0172 30.4269 28.0755C28.6094 28.1348 26.8381 28.6685 25.2856 29.6247C23.7331 30.5808 22.4523 31.9267 21.568 33.5313C17.7377 40.2281 20.5948 50.0701 24.264 55.4833C26.0997 58.134 28.2452 61.0949 31.0525 60.9899C33.7997 60.8749 34.8257 59.221 38.1417 59.221C41.4269 59.221 42.3895 60.9899 45.2538 60.9232C48.2016 60.8748 50.0589 58.2607 51.8302 55.5849C53.1492 53.6962 54.1642 51.6087 54.8375 49.3999C53.1249 48.6684 51.6635 47.4441 50.6353 45.8795C49.6072 44.3149 49.0579 42.4793 49.0559 40.6016V40.6016Z" fill="white"/>
<path d="M43.6457 24.4221C45.253 22.4737 46.0448 19.9694 45.8531 17.4409C43.3976 17.7014 41.1293 18.8865 39.5003 20.7601C38.7039 21.6755 38.0939 22.7403 37.7052 23.8939C37.3165 25.0474 37.1568 26.267 37.2352 27.4829C38.4634 27.4956 39.6785 27.2268 40.7889 26.6967C41.8993 26.1665 42.8761 25.3888 43.6457 24.4221Z" fill="white"/>
<path d="M83.7815 54.2793H74.4068L72.1555 60.9922H68.1847L77.0643 36.1562H81.1898L90.0694 60.9922H86.0309L83.7815 54.2793ZM75.3777 51.1816H82.8087L79.1455 40.2871H79.043L75.3777 51.1816Z" fill="white"/>
<path d="M109.246 51.9394C109.246 57.5663 106.264 61.1815 101.763 61.1815C100.623 61.2417 99.4891 60.9765 98.4913 60.4163C97.4935 59.856 96.6722 59.0233 96.1212 58.0135H96.0361V66.9823H92.3554V42.8847H95.9182V45.8964H95.9859C96.5621 44.8915 97.3974 44.0631 98.4027 43.4994C99.4081 42.9357 100.546 42.6578 101.695 42.6952C106.246 42.6953 109.246 46.328 109.246 51.9394ZM105.463 51.9394C105.463 48.2734 103.587 45.8632 100.724 45.8632C97.9122 45.8632 96.0206 48.3241 96.0206 51.9394C96.0206 55.5878 97.9122 58.0311 100.724 58.0311C103.587 58.0311 105.463 55.6386 105.463 51.9394Z" fill="white"/>
<path d="M128.982 51.9393C128.982 57.5663 126 61.1815 121.499 61.1815C120.359 61.2417 119.225 60.9765 118.227 60.4162C117.229 59.856 116.408 59.0233 115.857 58.0135H115.772V66.9822H112.091V42.8847H115.654V45.8964H115.722C116.298 44.8915 117.133 44.0631 118.138 43.4994C119.144 42.9357 120.282 42.6578 121.431 42.6952C125.982 42.6952 128.982 46.328 128.982 51.9393ZM125.199 51.9393C125.199 48.2734 123.323 45.8632 120.46 45.8632C117.648 45.8632 115.756 48.3241 115.756 51.9393C115.756 55.5878 117.648 58.0311 120.46 58.0311C123.323 58.0311 125.199 55.6385 125.199 51.9393H125.199Z" fill="white"/>
<path d="M142.026 54.0723C142.298 56.5352 144.668 58.1523 147.906 58.1523C151.008 58.1523 153.24 56.5351 153.24 54.3144C153.24 52.3867 151.894 51.2324 148.706 50.4414L145.519 49.666C141.003 48.5644 138.906 46.4316 138.906 42.9707C138.906 38.6855 142.604 35.7422 147.855 35.7422C153.052 35.7422 156.615 38.6855 156.735 42.9707H153.019C152.797 40.4922 150.768 38.9961 147.803 38.9961C144.838 38.9961 142.809 40.5098 142.809 42.7129C142.809 44.4687 144.105 45.5019 147.275 46.2929L149.985 46.9647C155.031 48.1698 157.127 50.2167 157.127 53.8495C157.127 58.4959 153.462 61.4061 147.633 61.4061C142.178 61.4061 138.496 58.5643 138.258 54.0721L142.026 54.0723Z" fill="white"/>
<path d="M165.071 38.5996V42.8848H168.481V45.8281H165.071V55.8105C165.071 57.3613 165.754 58.0839 167.253 58.0839C167.657 58.0768 168.061 58.0481 168.463 57.9979V60.9237C167.789 61.0508 167.104 61.1084 166.419 61.0956C162.789 61.0956 161.373 59.7186 161.373 56.2069V45.8281H158.766V42.8848H161.373V38.5996H165.071Z" fill="white"/>
<path d="M170.456 51.9394C170.456 46.2422 173.778 42.6621 178.96 42.6621C184.159 42.6621 187.466 46.2421 187.466 51.9394C187.466 57.6523 184.176 61.2167 178.96 61.2167C173.745 61.2167 170.456 57.6523 170.456 51.9394ZM183.716 51.9394C183.716 48.0312 181.942 45.7246 178.96 45.7246C175.977 45.7246 174.206 48.0488 174.206 51.9394C174.206 55.8632 175.977 58.1523 178.96 58.1523C181.942 58.1523 183.716 55.8632 183.716 51.9394H183.716Z" fill="white"/>
<path d="M190.501 42.885H194.011V45.967H194.096C194.334 45.0044 194.892 44.1538 195.678 43.558C196.463 42.9622 197.428 42.6577 198.409 42.6955C198.834 42.694 199.257 42.7406 199.67 42.8342V46.3108C199.135 46.1455 198.576 46.0697 198.017 46.0862C197.482 46.0643 196.949 46.1595 196.454 46.3652C195.959 46.571 195.514 46.8825 195.15 47.2782C194.786 47.674 194.51 48.1447 194.343 48.6581C194.176 49.1714 194.121 49.7152 194.181 50.2521V60.9923H190.501L190.501 42.885Z" fill="white"/>
<path d="M216.64 55.6738C216.145 58.9609 212.975 61.2167 208.919 61.2167C203.703 61.2167 200.465 57.6874 200.465 52.0254C200.465 46.3457 203.72 42.6621 208.765 42.6621C213.726 42.6621 216.845 46.1035 216.845 51.5937V52.8671H204.181V53.0918C204.122 53.7581 204.205 54.4295 204.423 55.0612C204.641 55.6928 204.99 56.2704 205.446 56.7555C205.903 57.2406 206.456 57.6221 207.069 57.8747C207.683 58.1273 208.342 58.2452 209.005 58.2206C209.874 58.3029 210.747 58.0995 211.493 57.6406C212.239 57.1817 212.819 56.4919 213.145 55.6738L216.64 55.6738ZM204.198 50.2695H213.163C213.196 49.6703 213.106 49.0707 212.899 48.5083C212.691 47.9459 212.371 47.4328 211.958 47.0013C211.545 46.5697 211.048 46.2291 210.499 46.0006C209.949 45.7722 209.359 45.6609 208.765 45.6738C208.165 45.6702 207.571 45.7865 207.017 46.016C206.462 46.2455 205.958 46.5836 205.533 47.0109C205.109 47.4381 204.772 47.9461 204.543 48.5054C204.314 49.0647 204.197 49.6642 204.198 50.2695V50.2695Z" fill="white"/>
<path d="M69.7835 25.66V24.162H70.1195C70.2035 24.162 70.3062 24.162 70.4275 24.162C70.5488 24.162 70.6702 24.162 70.7915 24.162C70.9222 24.1527 71.0482 24.1433 71.1695 24.134C71.2908 24.1153 71.3888 24.0967 71.4635 24.078C71.7902 24.0033 72.0702 23.8727 72.3035 23.686C72.5368 23.49 72.6535 23.2287 72.6535 22.902C72.6535 22.454 72.5088 22.1507 72.2195 21.992C71.9395 21.824 71.5662 21.74 71.0995 21.74C70.6795 21.74 70.2875 21.796 69.9235 21.908C69.5595 22.02 69.2842 22.1273 69.0975 22.23L68.6075 20.606C68.7102 20.55 68.8548 20.4893 69.0415 20.424C69.2375 20.3587 69.4568 20.298 69.6995 20.242C69.9515 20.1767 70.2222 20.1253 70.5115 20.088C70.8008 20.0507 71.0948 20.032 71.3935 20.032C71.8042 20.032 72.2055 20.0693 72.5975 20.144C72.9895 20.2187 73.3395 20.3493 73.6475 20.536C73.9555 20.7227 74.2028 20.9747 74.3895 21.292C74.5762 21.6 74.6695 21.9967 74.6695 22.482C74.6695 22.9673 74.5388 23.4153 74.2775 23.826C74.0255 24.2367 73.6148 24.5353 73.0455 24.722V24.792C73.6522 24.9133 74.1235 25.1747 74.4595 25.576C74.8048 25.9773 74.9775 26.514 74.9775 27.186C74.9775 27.718 74.8702 28.1753 74.6555 28.558C74.4408 28.9313 74.1562 29.2393 73.8015 29.482C73.4562 29.7247 73.0548 29.902 72.5975 30.014C72.1402 30.1353 71.6735 30.196 71.1975 30.196C70.5815 30.196 70.0215 30.1447 69.5175 30.042C69.0135 29.9393 68.6262 29.818 68.3555 29.678L68.8455 28.012C69.0602 28.1147 69.3682 28.222 69.7695 28.334C70.1708 28.4367 70.6468 28.488 71.1975 28.488C71.4028 28.488 71.6082 28.4647 71.8135 28.418C72.0282 28.362 72.2195 28.278 72.3875 28.166C72.5555 28.0447 72.6908 27.8907 72.7935 27.704C72.8962 27.5173 72.9475 27.2933 72.9475 27.032C72.9475 26.5933 72.7842 26.262 72.4575 26.038C72.1308 25.814 71.5475 25.6927 70.7075 25.674C70.5955 25.6647 70.5115 25.66 70.4555 25.66C70.3995 25.66 70.3015 25.66 70.1615 25.66H69.7835ZM76.2287 23.406C76.602 23.238 77.0453 23.1073 77.5587 23.014C78.072 22.9113 78.6087 22.86 79.1687 22.86C79.654 22.86 80.06 22.9207 80.3867 23.042C80.7133 23.154 80.97 23.3173 81.1567 23.532C81.3527 23.7467 81.488 24.0033 81.5627 24.302C81.6467 24.6007 81.6887 24.9367 81.6887 25.31C81.6887 25.7207 81.6747 26.136 81.6467 26.556C81.6187 26.9667 81.6 27.3727 81.5907 27.774C81.5907 28.1753 81.6047 28.5673 81.6327 28.95C81.6607 29.3233 81.7307 29.678 81.8427 30.014H80.3587L80.0647 29.048H79.9947C79.808 29.3373 79.5467 29.5893 79.2107 29.804C78.884 30.0093 78.4593 30.112 77.9367 30.112C77.61 30.112 77.316 30.0653 77.0547 29.972C76.7933 29.8693 76.5693 29.7293 76.3827 29.552C76.196 29.3653 76.0513 29.1507 75.9487 28.908C75.846 28.656 75.7947 28.376 75.7947 28.068C75.7947 27.6387 75.888 27.2793 76.0747 26.99C76.2707 26.6913 76.546 26.4533 76.9007 26.276C77.2647 26.0893 77.694 25.9633 78.1887 25.898C78.6927 25.8233 79.2527 25.8 79.8687 25.828C79.934 25.3053 79.8967 24.932 79.7567 24.708C79.6167 24.4747 79.304 24.358 78.8187 24.358C78.4547 24.358 78.0673 24.3953 77.6567 24.47C77.2553 24.5447 76.924 24.6427 76.6627 24.764L76.2287 23.406ZM78.5387 28.614C78.9027 28.614 79.192 28.5347 79.4067 28.376C79.6213 28.208 79.78 28.0307 79.8827 27.844V26.934C79.5933 26.906 79.3133 26.9013 79.0427 26.92C78.7813 26.9387 78.548 26.9807 78.3427 27.046C78.1373 27.1113 77.974 27.2047 77.8527 27.326C77.7313 27.4473 77.6707 27.6013 77.6707 27.788C77.6707 28.0493 77.7453 28.2547 77.8947 28.404C78.0533 28.544 78.268 28.614 78.5387 28.614ZM87.738 24.61H85.092V30H83.216V23H87.738V24.61ZM88.4796 23H89.8096L90.0196 23.84H90.0756C90.3183 23.4853 90.603 23.224 90.9296 23.056C91.2656 22.888 91.6716 22.804 92.1476 22.804C93.025 22.804 93.683 23.084 94.1216 23.644C94.5603 24.1947 94.7796 25.086 94.7796 26.318C94.7796 26.9153 94.7096 27.4567 94.5696 27.942C94.4296 28.418 94.2196 28.824 93.9396 29.16C93.669 29.496 93.333 29.7527 92.9316 29.93C92.5396 30.1073 92.087 30.196 91.5736 30.196C91.2843 30.196 91.0463 30.1727 90.8596 30.126C90.673 30.0887 90.4863 30.0233 90.2996 29.93V32.8H88.4796V23ZM91.6016 24.344C91.247 24.344 90.967 24.4327 90.7616 24.61C90.5656 24.7873 90.4116 25.0533 90.2996 25.408V28.32C90.4303 28.4227 90.5703 28.5067 90.7196 28.572C90.8783 28.628 91.0836 28.656 91.3356 28.656C91.8583 28.656 92.2503 28.474 92.5116 28.11C92.773 27.7367 92.9036 27.1253 92.9036 26.276C92.9036 25.66 92.801 25.184 92.5956 24.848C92.3903 24.512 92.059 24.344 91.6016 24.344ZM98.4241 26.934L98.6761 28.026H98.7601L98.9421 26.92L100.006 23H101.882L99.7541 29.314C99.5768 29.8367 99.4041 30.3127 99.2361 30.742C99.0775 31.1807 98.9001 31.5587 98.7041 31.876C98.5081 32.1933 98.2888 32.436 98.0461 32.604C97.8128 32.7813 97.5328 32.87 97.2061 32.87C96.7208 32.87 96.3335 32.7907 96.0441 32.632L96.3801 31.176C96.5201 31.232 96.6601 31.26 96.8001 31.26C97.0148 31.26 97.2201 31.1667 97.4161 30.98C97.6215 30.8027 97.7755 30.476 97.8781 30L94.9521 23H97.1361L98.4241 26.934ZM103.29 27.102V25.828H104.144C104.47 25.828 104.736 25.7627 104.942 25.632C105.156 25.5013 105.264 25.3287 105.264 25.114C105.264 24.862 105.17 24.6847 104.984 24.582C104.797 24.47 104.512 24.414 104.13 24.414C103.766 24.414 103.444 24.4607 103.164 24.554C102.884 24.6473 102.66 24.7453 102.492 24.848L102.1 23.462C102.38 23.3033 102.748 23.168 103.206 23.056C103.672 22.9347 104.167 22.874 104.69 22.874C105.492 22.874 106.09 23.0233 106.482 23.322C106.883 23.6207 107.084 24.0547 107.084 24.624C107.084 24.7827 107.06 24.946 107.014 25.114C106.976 25.2727 106.911 25.4267 106.818 25.576C106.724 25.7253 106.608 25.8607 106.468 25.982C106.337 26.094 106.178 26.1827 105.992 26.248V26.304C106.486 26.416 106.836 26.6167 107.042 26.906C107.247 27.186 107.35 27.564 107.35 28.04C107.35 28.3387 107.289 28.6187 107.168 28.88C107.046 29.132 106.86 29.3513 106.608 29.538C106.365 29.7247 106.057 29.874 105.684 29.986C105.31 30.098 104.867 30.154 104.354 30.154C103.84 30.154 103.392 30.1027 103.01 30C102.636 29.888 102.324 29.762 102.072 29.622L102.464 28.208C102.678 28.3293 102.935 28.4273 103.234 28.502C103.542 28.5767 103.882 28.614 104.256 28.614C105.105 28.614 105.53 28.3433 105.53 27.802C105.53 27.5593 105.418 27.382 105.194 27.27C104.979 27.158 104.573 27.102 103.976 27.102H103.29ZM112.819 26.808L112.889 25.814H112.847L112.245 26.836L109.753 30H108.605V23H110.425V26.332L110.341 27.284H110.397L110.971 26.29L113.491 23H114.639V30H112.819V26.808ZM121.274 24.61H119.328V30H117.452V24.61H115.45V23H121.274V24.61ZM127.576 29.398C127.296 29.622 126.913 29.8133 126.428 29.972C125.952 30.1213 125.443 30.196 124.902 30.196C123.772 30.196 122.946 29.8693 122.424 29.216C121.901 28.5533 121.64 27.648 121.64 26.5C121.64 25.268 121.934 24.344 122.522 23.728C123.11 23.112 123.936 22.804 125 22.804C125.354 22.804 125.7 22.8507 126.036 22.944C126.372 23.0373 126.67 23.1913 126.932 23.406C127.193 23.6207 127.403 23.91 127.562 24.274C127.72 24.638 127.8 25.0907 127.8 25.632C127.8 25.828 127.786 26.038 127.758 26.262C127.739 26.486 127.706 26.7193 127.66 26.962H123.46C123.488 27.55 123.637 27.9933 123.908 28.292C124.188 28.5907 124.636 28.74 125.252 28.74C125.634 28.74 125.975 28.684 126.274 28.572C126.582 28.4507 126.815 28.3293 126.974 28.208L127.576 29.398ZM124.972 24.26C124.496 24.26 124.141 24.4047 123.908 24.694C123.684 24.974 123.548 25.352 123.502 25.828H126.106C126.143 25.324 126.064 24.9367 125.868 24.666C125.681 24.3953 125.382 24.26 124.972 24.26ZM132.626 23.014C132.953 22.986 133.345 22.958 133.802 22.93C134.269 22.902 134.768 22.888 135.3 22.888C136.327 22.888 137.055 23.0373 137.484 23.336C137.923 23.6253 138.142 24.064 138.142 24.652C138.142 24.9787 138.049 25.296 137.862 25.604C137.675 25.912 137.381 26.136 136.98 26.276V26.332C137.484 26.444 137.848 26.6447 138.072 26.934C138.296 27.214 138.408 27.578 138.408 28.026C138.408 28.726 138.137 29.2487 137.596 29.594C137.064 29.9393 136.205 30.112 135.02 30.112C134.628 30.112 134.213 30.098 133.774 30.07C133.335 30.0513 132.953 30.0233 132.626 29.986V23.014ZM134.404 28.6C134.535 28.6187 134.656 28.6327 134.768 28.642C134.88 28.6513 135.02 28.656 135.188 28.656C135.692 28.656 136.051 28.586 136.266 28.446C136.481 28.306 136.588 28.0913 136.588 27.802C136.588 27.5593 136.495 27.3633 136.308 27.214C136.131 27.0553 135.809 26.976 135.342 26.976H134.404V28.6ZM135.37 25.856C135.669 25.856 135.911 25.786 136.098 25.646C136.294 25.4967 136.392 25.31 136.392 25.086C136.392 24.8433 136.308 24.6613 136.14 24.54C135.981 24.4093 135.687 24.344 135.258 24.344C135.043 24.344 134.871 24.3487 134.74 24.358C134.619 24.3673 134.507 24.3767 134.404 24.386V25.856H135.37Z" fill="white"/>
</svg>
