<?xml version="1.0" encoding="UTF-8"?>
<svg width="126px" height="31px" viewBox="0 0 126 31" version="1.1" xmlns="http://www.w3.org/2000/svg" xmlns:xlink="http://www.w3.org/1999/xlink">
    <!-- Generator: Sketch 53.1 (72631) - https://sketchapp.com -->
    <title>ref-soundcloud</title>
    <desc>Created with Sketch.</desc>
    <g id="Page-1" stroke="none" stroke-width="1" fill="none" fill-rule="evenodd">
        <g id="ref-soundcloud" fill-rule="nonzero">
            <path d="M118.717,0 L7.28738,0 C7.00711,0 6.7302,0 6.45062,0.00155 C6.21667,0.0030225 5.98455,0.007595 5.74831,0.011315 C5.23966,0.02418 4.7246,0.0560325 4.21672,0.148335 C3.7051,0.239165 3.22963,0.39432 2.76386,0.63426 C2.30635,0.871875 1.88836,1.18063 1.52677,1.54775 C1.16097,1.91479 0.858004,2.34011 0.626192,2.80411 C0.388494,3.27561 0.237698,3.75999 0.148504,4.27916 C0.056329,4.79229 0.0246105,5.31146 0.0115409,5.83071 C0.00450937,6.06833 0.00374507,6.30672 0,6.54433 C0,6.82511 0,7.10667 0,7.39048 L0,23.6102 C0,23.8963 0,24.1764 0,24.4579 C0.00374507,24.6986 0.00450937,24.9317 0.0115409,25.1724 C0.0246105,25.6916 0.056329,26.2107 0.148504,26.7239 C0.237698,27.243 0.388494,27.7297 0.626192,28.1997 C0.857928,28.6614 1.16097,29.0868 1.52669,29.4508 C1.88828,29.8208 2.30628,30.1289 2.76386,30.3643 C3.22963,30.6065 3.70502,30.7594 4.21672,30.8531 C4.7246,30.9455 5.23966,30.9758 5.74831,30.9902 C5.98455,30.9954 6.21667,30.9984 6.45062,30.9984 C6.7302,31 7.00711,31 7.28738,31 L118.717,31 C118.992,31 119.271,31 119.545,30.9984 C119.778,30.9984 120.017,30.9954 120.25,30.9902 C120.762,30.9758 121.275,30.9455 121.779,30.8531 C122.291,30.7594 122.767,30.6065 123.237,30.3643 C123.694,30.1289 124.112,29.8208 124.473,29.4508 C124.837,29.0868 125.14,28.6614 125.376,28.1997 C125.61,27.7297 125.763,27.243 125.849,26.7239 C125.943,26.2107 125.973,25.6916 125.991,25.1724 C125.994,24.9317 125.994,24.6986 125.994,24.4579 C126,24.1764 126,23.8963 126,23.6102 L126,7.39048 C126,7.10667 126,6.82511 125.994,6.54433 C125.994,6.30672 125.994,6.06825 125.991,5.83063 C125.973,5.31146 125.943,4.79229 125.849,4.27908 C125.763,3.75991 125.61,3.27554 125.376,2.80403 C125.14,2.34011 124.837,1.91471 124.473,1.54767 C124.112,1.18063 123.694,0.871798 123.237,0.634183 C122.767,0.394242 122.291,0.239087 121.779,0.148257 C121.275,0.055955 120.762,0.0241025 120.25,0.0112375 C120.017,0.00744 119.778,0.002945 119.545,0.001395 C119.271,0 118.991,0 118.717,0 Z" id="Path" fill="#A6A6A6"></path>
            <path d="M6.45437,30.3219 C6.22148,30.3219 5.99426,30.3189 5.76321,30.3136 C5.33589,30.3014 4.82908,30.2772 4.33465,30.1872 C3.86813,30.1016 3.45357,29.9624 3.06844,29.7626 C2.66985,29.5575 2.31163,29.2926 2.00071,28.9747 C1.68421,28.6599 1.42412,28.2981 1.22074,27.8924 C1.02256,27.5012 0.887124,27.0811 0.805726,26.6081 C0.712405,26.0867 0.688558,25.5576 0.67847,25.1549 C0.673654,24.9915 0.667311,24.4473 0.667311,24.4473 L0.667311,6.54433 C0.667311,6.54433 0.674037,6.0085 0.67847,5.85109 C0.688558,5.44507 0.712404,4.91644 0.804961,4.40022 C0.886741,3.9246 1.02218,3.50494 1.22036,3.11209 C1.42336,2.70568 1.68383,2.34205 1.9962,2.02872 C2.31231,1.70779 2.67207,1.4422 3.06798,1.23628 C3.4606,1.03424 3.87447,0.896054 4.3316,0.814756 C4.8462,0.721291 5.36799,0.697808 5.76504,0.687578 L6.45475,0.678123 L119.542,0.678123 L120.239,0.687966 C120.631,0.697808 121.153,0.721291 121.66,0.813981 C122.12,0.895743 122.537,1.03462 122.937,1.2386 C123.329,1.4422 123.688,1.70787 124,2.02569 C124.313,2.3405 124.575,2.70607 124.783,3.11403 C124.98,3.51021 125.114,3.92987 125.192,4.39192 C125.28,4.88087 125.308,5.38299 125.325,5.8545 C125.327,6.07398 125.327,6.30974 125.327,6.54433 C125.333,6.83496 125.333,7.11155 125.333,7.39048 L125.333,23.6102 C125.333,23.8918 125.333,24.1665 125.327,24.4435 C125.327,24.6955 125.327,24.9264 125.324,25.164 C125.308,25.6204 125.28,26.1222 125.193,26.6005 C125.114,27.0758 124.98,27.4958 124.78,27.8947 C124.574,28.2973 124.312,28.6614 124.004,28.9686 C123.688,29.2926 123.33,29.5567 122.935,29.7611 C122.538,29.9654 122.134,30.1008 121.66,30.1872 C121.17,30.2772 120.663,30.3014 120.231,30.3136 C120.007,30.3189 119.773,30.3219 119.545,30.3219 L118.717,30.3234 L6.45437,30.3219 Z" id="Path" fill="#000000"></path>
            <path d="M29.8333,9.05177 C29.8333,7.55206 30.6204,6.62571 31.8878,6.62571 C32.8927,6.62571 33.6701,7.28608 33.784,8.22833 L33.079,8.22833 C32.9466,7.66111 32.4883,7.29554 31.8878,7.29554 C31.069,7.29554 30.557,7.9718 30.557,9.05177 C30.557,10.1287 31.069,10.8046 31.8907,10.8046 C32.4945,10.8046 32.9528,10.4746 33.079,9.95239 L33.784,9.95239 C33.6575,10.8655 32.9085,11.4744 31.8907,11.4744 C30.6234,11.4744 29.8333,10.5484 29.8333,9.05177 Z" id="Path" fill="#FFFFFF"></path>
            <path d="M34.5087,11.3975 C34.3949,11.3975 34.3158,11.3752 34.2747,11.3593 L34.2747,10.7149 C34.3064,10.7248 34.3728,10.7406 34.4579,10.7406 C34.793,10.7406 34.9132,10.3338 34.9542,9.73105 L35.0744,7.87268 L37.4445,7.87268 L37.4445,11.3624 L36.7649,11.3624 L36.7649,8.45238 L35.6748,8.45238 L35.58,9.76663 C35.5137,10.7599 35.2704,11.3975 34.5087,11.3975 Z" id="Path" fill="#FFFFFF"></path>
            <path d="M38.647,12.6123 L38.647,12.0193 C38.7007,12.0292 38.8048,12.0322 38.8684,12.0322 C39.1904,12.0322 39.374,11.8975 39.4909,11.5452 L39.5412,11.3753 L38.2963,7.87268 L39.0356,7.87268 L39.8984,10.6446 L39.9521,10.6446 L40.812,7.87268 L41.5326,7.87268 L40.2492,11.5067 C39.9555,12.3558 39.6301,12.6283 38.9281,12.6283 C38.8713,12.6282 38.7101,12.6217 38.647,12.6123 Z" id="Path" fill="#FFFFFF"></path>
            <polygon id="Path" fill="#FFFFFF" points="42.3838 7.8726 43.0634 7.8726 43.0634 10.7823 44.2487 10.7823 44.2487 7.8726 44.9283 7.8726 44.9283 10.7823 46.1132 10.7823 46.1132 7.8726 46.7929 7.8726 46.7929 11.3624 42.3839 11.3624 42.3839 7.8726"></polygon>
            <path d="M47.7388,10.3755 C47.7388,9.74733 48.2001,9.38517 49.0189,9.33371 L49.9511,9.27923 L49.9511,8.97799 C49.9511,8.6094 49.7107,8.40131 49.2461,8.40131 C48.8669,8.40131 48.6046,8.54244 48.5288,8.7892 L47.8712,8.7892 C47.941,8.18981 48.497,7.80533 49.2777,7.80533 C50.1406,7.80533 50.6272,8.24088 50.6272,8.97806 L50.6272,11.3625 L49.973,11.3625 L49.973,10.8721 L49.9192,10.8721 C49.7139,11.2214 49.3378,11.42 48.8859,11.42 C48.2221,11.4199 47.7388,11.0131 47.7388,10.3755 Z M49.9511,10.0772 L49.9511,9.78546 L49.1103,9.83994 C48.6363,9.8721 48.4214,10.0356 48.4214,10.3432 C48.4214,10.6573 48.6901,10.8401 49.0598,10.8401 C49.5719,10.8402 49.9511,10.5098 49.9511,10.0772 Z" id="Shape" fill="#FFFFFF"></path>
            <path d="M51.7506,11.3624 L51.7506,7.8726 L52.4239,7.8726 L52.4239,10.2729 L52.4776,10.2729 L54.0641,7.8726 L54.7374,7.8726 L54.7374,11.3624 L54.0641,11.3624 L54.0641,8.94916 L54.0137,8.94916 L52.4239,11.3624 L51.7506,11.3624 Z M52.6609,6.2923 C52.6609,6.63555 52.8758,6.93028 53.2202,6.93028 C53.5711,6.93028 53.783,6.63547 53.786,6.2923 L54.3487,6.2923 C54.3487,6.91401 53.8968,7.37567 53.2202,7.37567 C52.5439,7.37567 52.095,6.91401 52.095,6.2923 L52.6609,6.2923 Z" id="Shape" fill="#FFFFFF"></path>
            <polygon id="Path" fill="#FFFFFF" points="58.4461 8.4523 57.3619 8.4523 57.3619 11.3624 56.6823 11.3624 56.6823 8.4523 55.5985 8.4523 55.5985 7.8726 58.4461 7.8726"></polygon>
            <path d="M62.1042,10.4201 C61.9493,11.0452 61.3992,11.4297 60.6122,11.4297 C59.6262,11.4297 59.0227,10.744 59.0227,9.62844 C59.0227,8.51322 59.6389,7.80526 60.6092,7.80526 C61.5668,7.80526 62.1453,8.46866 62.1453,9.56451 L62.1453,9.80483 L59.7147,9.80483 L59.7147,9.84343 C59.7367,10.4554 60.0875,10.8432 60.6312,10.8432 C61.0421,10.8432 61.3235,10.6926 61.45,10.4201 L62.1042,10.4201 Z M59.7146,9.29543 L61.4529,9.29543 C61.4372,8.7475 61.1084,8.39139 60.6057,8.39139 C60.1035,8.39139 59.7526,8.75052 59.7146,9.29543 Z" id="Shape" fill="#FFFFFF"></path>
            <polygon id="Path" fill="#FFFFFF" points="67.2494 9.84986 65.6625 9.84986 65.6625 11.3624 64.9833 11.3624 64.9833 7.87268 65.6625 7.87268 65.6625 9.26977 67.2494 9.26977 67.2494 7.87268 67.9256 7.87268 67.9256 11.3624 67.2494 11.3624"></polygon>
            <path d="M68.8743,10.3755 C68.8743,9.74733 69.3363,9.38517 70.1543,9.33371 L71.0865,9.27923 L71.0865,8.97799 C71.0865,8.6094 70.8469,8.40131 70.3819,8.40131 C70.0028,8.40131 69.7408,8.54244 69.6646,8.7892 L69.007,8.7892 C69.0764,8.18981 69.6332,7.80533 70.4139,7.80533 C71.276,7.80533 71.7634,8.24088 71.7634,8.97806 L71.7634,11.3625 L71.1089,11.3625 L71.1089,10.8721 L71.0551,10.8721 C70.8498,11.2214 70.4737,11.42 70.0214,11.42 C69.3579,11.4199 68.8743,11.0131 68.8743,10.3755 Z M71.0865,10.0772 L71.0865,9.78546 L70.2461,9.83994 C69.7722,9.8721 69.5572,10.0356 69.5572,10.3432 C69.5572,10.6573 69.8259,10.8401 70.1954,10.8401 C70.7074,10.8402 71.0865,10.5098 71.0865,10.0772 Z" id="Shape" fill="#FFFFFF"></path>
            <g id="Logo" transform="translate(5.000000, 6.000000)">
                <path d="M18.6170296,2.5356939 C18.1508897,1.43015177 17.2153666,0.590704455 16.0661612,0.246793153 C15.3163827,0.0593219978 14.5440228,-0.022037155 13.77165,0.00509304337 L5.22839055,0.00509304337 C4.45601784,-0.0220369207 3.68365793,0.0593222288 2.93387943,0.246793153 C1.78467462,0.590705569 0.849151878,1.43015251 0.383011003,2.5356939 C0.0937785578,3.40223433 -0.0335090574,4.3146282 0.0075111901,5.22726545 L0.0075111901,13.772699 C-0.0335137191,14.6853511 0.0937739451,15.5977603 0.383011003,16.464315 C0.84915506,17.5698522 1.78467706,18.4092953 2.93387943,18.7532068 C3.68365794,18.9406776 4.45601784,19.0220368 5.22839055,18.994907 L13.7716057,18.994907 C14.5439784,19.0220371 15.3163383,18.940678 16.0661168,18.7532068 C17.2153198,18.4092963 18.1508422,17.569853 18.6169852,16.464315 C18.9062223,15.5977603 19.03351,14.6853511 18.992485,13.772699 L18.992485,5.22726545 C19.0335196,4.31463094 18.906247,3.40223714 18.6170296,2.5356939 Z" id="_Path_2" fill="#FFFFFF"></path>
                <g id="Group" transform="translate(3.000000, 3.000000)">
                    <ellipse id="Oval" fill="#FFCC00" cx="6.28325141" cy="8.68356337" rx="6.27711542" ry="5.78715656"></ellipse>
                    <path d="M9.42640636,2.78464191 L9.42645964,8.1985852 L9.4125965,8.20286075 C9.41260157,8.20515967 9.41260513,8.20746784 9.41260513,8.20978589 C9.41260513,8.73932156 9.37096884,9.2332552 9.29318933,9.4853455 C8.91911806,10.6977441 7.7090494,11.5771416 6.27404744,11.5771416 C4.54066987,11.5771416 3.15389768,10.2858853 3.15389768,8.68780615 C3.15389768,7.08972699 4.54066987,5.79847065 6.27404744,5.79847065 C7.09077558,5.79847065 7.83464126,6.08608189 8.39298655,6.55743989 C8.57540771,6.7114408 8.73802566,6.88505565 8.87691137,7.07466213 C8.83838571,6.90496483 8.80043111,6.69147626 8.80043111,6.50899547 L8.80043111,2.31316551 L8.80043111,0 L12.8855742,1.15403709 L12.8855742,3.76759166 L9.42640636,2.78464191 Z" id="Combined-Shape" fill="#FF3333"></path>
                </g>
            </g>
            <g id="Яндекс-Музыке" transform="translate(30.000000, 14.000000)" fill="#FFFFFF">
                <path d="M4.17516942,6.552 L3.20349363,6.552 L1.35123665,10.6228571 L-7.10542736e-15,10.6228571 L2.03444619,6.26971429 C1.07795283,5.79428571 0.440290593,4.93257143 0.440290593,3.34285714 C0.440290593,1.11428571 1.88262185,0 3.59823692,0 L5.34421685,0 L5.34421685,10.6228571 L4.17516942,10.6228571 L4.17516942,6.552 Z M4.17516942,5.60114286 L4.17516942,0.965714286 L3.55268961,0.965714286 C2.61137869,0.965714286 1.70043264,1.57485714 1.70043264,3.34285714 C1.70043264,5.05142857 2.53546652,5.60114286 3.55268961,5.60114286 L4.17516942,5.60114286 Z M17.0650561,9.672 L17.0650561,12.0937143 L16.0022857,12.0937143 L16.0022857,10.6228571 L12.7228799,10.6228571 L12.7228799,12.0937143 L11.6601095,12.0937143 L11.6601095,9.672 L12.130765,9.672 C12.8291569,8.08228571 12.9050691,5.76457143 12.9050691,3.77371429 L12.9050691,3.13485714 L16.4577587,3.13485714 L16.4577587,9.672 L17.0650561,9.672 Z M22.2119013,10.1177143 C21.7260634,10.4891429 21.0884012,10.7268571 20.3292795,10.7268571 C18.7503063,10.7268571 17.7786305,9.49371429 17.7786305,7.19085714 C17.7786305,4.784 18.46184,3.03085714 20.0863605,3.03085714 C21.361685,3.03085714 22.1967189,3.96685714 22.1967189,6.50742857 L22.1967189,7.14628571 L19.0084077,7.14628571 C19.0084077,8.84 19.4942456,9.73142857 20.4355565,9.73142857 C21.1035836,9.73142857 21.6349688,9.43428571 21.9386175,9.22628571 L22.2119013,10.1177143 Z M9.80785252,3.13485714 L10.9769,3.13485714 L10.9769,10.6228571 L9.80785252,10.6228571 L9.80785252,7.26514286 L8.04669015,7.26514286 L8.04669015,10.6228571 L6.86246028,10.6228571 L6.86246028,3.13485714 L8.04669015,3.13485714 L8.04669015,6.31428571 L9.80785252,6.31428571 L9.80785252,3.13485714 Z M26.6148072,10.6228571 L24.5955435,6.89371429 L24.5955435,10.6228571 L23.4113136,10.6228571 L23.4113136,3.13485714 L24.5955435,3.13485714 L24.5955435,6.59657143 L26.432618,3.13485714 L27.6320303,3.13485714 L25.734226,6.656 L27.9053141,10.6228571 L26.6148072,10.6228571 Z M30.6836996,10.7268571 C29.0439967,10.7268571 28.0571385,9.43428571 28.0571385,6.87885714 C28.0571385,4.53142857 28.983267,3.03085714 30.7747942,3.03085714 C31.4580038,3.03085714 31.852747,3.20914286 32.1867606,3.41714286 L32.0197538,4.51657143 C31.7009227,4.24914286 31.2454497,3.99657143 30.7596118,3.99657143 C29.9093955,3.99657143 29.3020981,4.93257143 29.3020981,6.81942857 C29.3020981,8.69142857 29.7575711,9.76114286 30.7140645,9.76114286 C31.290997,9.76114286 31.7312876,9.53828571 32.0045714,9.30057143 L32.2778552,10.1622857 C31.8679295,10.504 31.3820916,10.7268571 30.6836996,10.7268571 Z M15.2887113,9.672 L15.2887113,4.07085714 L13.9678395,4.07085714 L13.9678395,4.20457143 C13.9678395,5.77942857 13.8919273,8.08228571 13.2542651,9.672 L15.2887113,9.672 Z M20.0863605,3.98171429 C19.3576037,3.98171429 19.0995023,4.85828571 19.0235901,6.19542857 L20.9821241,6.19542857 C20.9821241,4.91771429 20.76957,3.98171429 20.0863605,3.98171429 Z M36.6200314,1.18857143 C36.6200314,1.768 36.604849,2.62971429 36.5744841,3.35771429 L36.255653,10.6228571 L35.6331732,10.6228571 L36.1038286,0 L36.9388625,0 L38.563383,6.552 C38.7000249,7.072 38.7759371,7.57714286 38.8214844,8.02285714 L38.8518492,8.02285714 C38.8973965,7.57714286 38.9884911,7.072 39.125133,6.552 L40.7952008,0 L41.6454171,0 L42.1160726,10.6228571 L41.3873157,10.6228571 L41.0684846,3.29828571 C41.0229373,2.46628571 41.0381198,1.82742857 41.0381198,1.17371429 L40.9925725,1.17371429 C40.9014779,1.84228571 40.7952008,2.46628571 40.628194,3.09028571 L39.1099506,8.95885714 L38.5178357,8.95885714 L37.0147747,3.09028571 C36.8629503,2.51085714 36.7414909,1.91657143 36.6655787,1.18857143 L36.6200314,1.18857143 Z M43.8620525,13 C43.6950458,13 43.5735863,12.9851429 43.4673092,12.9702857 L43.3913971,12.3165714 C43.5128565,12.3462857 43.6646809,12.376 43.8620525,12.376 C44.3782553,12.376 44.7426337,11.8857143 44.9703702,11.0537143 L45.0311,10.8308571 L43.1332957,3.13485714 L43.8468701,3.13485714 L45.0614648,8.02285714 C45.1981067,8.58742857 45.3043838,9.13714286 45.380296,9.71657143 L45.4258433,9.71657143 C45.5321203,9.12228571 45.6535798,8.57257143 45.7902217,8.02285714 L46.9744516,3.13485714 L47.6121138,3.13485714 L45.6535798,11.0091429 C45.3954784,12.0194286 44.9400054,13 43.8620525,13 Z M50.0261208,10.7714286 C48.7963437,10.7714286 48.2042287,9.93942857 48.2042287,9.93942857 L48.4471477,9.36 C48.4471477,9.36 48.9633504,10.1622857 50.0109384,10.1622857 C50.800425,10.1622857 51.4380872,9.61257143 51.4380872,8.528 C51.4380872,7.592 50.9674318,6.95314286 49.8287492,6.95314286 L49.191087,6.95314286 L49.191087,6.38857143 L49.752837,6.38857143 C50.6334182,6.38857143 51.255898,5.86857143 51.255898,4.84342857 C51.255898,4.08571429 50.8459723,3.59542857 50.102033,3.59542857 C49.403641,3.59542857 48.9026207,3.98171429 48.5686071,4.44228571 L48.3864179,3.77371429 C48.7204315,3.34285714 49.2821816,2.98628571 50.102033,2.98628571 C51.3014453,2.98628571 51.9391075,3.72914286 51.9391075,4.82857143 C51.9391075,5.55657143 51.6354589,6.22514286 50.800425,6.62628571 C51.7569183,6.968 52.1668441,7.696 52.1668441,8.51314286 C52.1668441,9.96914286 51.1951683,10.7714286 50.0261208,10.7714286 Z M53.4269861,10.6228571 L53.4269861,3.13485714 L54.1405605,3.13485714 L54.1405605,5.91314286 L54.7023106,5.91314286 C56.1598243,5.91314286 57.1011352,6.68571429 57.1011352,8.24571429 C57.1011352,9.83542857 56.0990945,10.6228571 54.6567633,10.6228571 L53.4269861,10.6228571 Z M58.6193786,3.13485714 L58.6193786,10.6228571 L57.9209866,10.6228571 L57.9209866,3.13485714 L58.6193786,3.13485714 Z M54.6719457,6.46285714 L54.1405605,6.46285714 L54.1405605,10.0731429 L54.5960335,10.0731429 C55.6739864,10.0731429 56.4027432,9.55314286 56.4027432,8.26057143 C56.4027432,6.99771429 55.765081,6.46285714 54.6719457,6.46285714 Z M61.0333857,6.74514286 L61.0333857,10.6228571 L60.3198113,10.6228571 L60.3198113,3.13485714 L61.0333857,3.13485714 L61.0333857,6.656 L63.599217,3.13485714 L64.297609,3.13485714 L61.7773249,6.61142857 L64.4797982,10.6228571 L63.6903117,10.6228571 L61.0333857,6.74514286 Z M65.4970213,6.99771429 C65.5273862,9.048 66.0739538,10.1622857 67.1822715,10.1622857 C68.1994946,10.1622857 68.7308798,9.36 68.7308798,9.36 L68.9586163,9.92457143 C68.9586163,9.92457143 68.3816838,10.7714286 67.1670891,10.7714286 C65.5425686,10.7714286 64.7986294,9.33028571 64.7986294,6.87885714 C64.7986294,4.42742857 65.7399403,2.98628571 67.0304472,2.98628571 C68.351319,2.98628571 69.2015353,4.33828571 68.9586163,6.99771429 L65.4970213,6.99771429 Z M67.0304472,3.56571429 C66.2257782,3.56571429 65.5729335,4.576 65.5122038,6.448 L68.2905892,6.448 C68.4120487,4.45714286 67.8047513,3.56571429 67.0304472,3.56571429 Z" id="Shape"></path>
            </g>
        </g>
    </g>
</svg>