<svg width="492" height="121" viewBox="0 0 492 121" fill="none" xmlns="http://www.w3.org/2000/svg">
<path d="M463.562 0H28.4555C27.3611 0 26.2798 0 25.1881 0.00605C24.2746 0.0117975 23.3682 0.029645 22.4458 0.044165C20.4596 0.09438 18.4484 0.218707 16.4653 0.578985C14.4675 0.933515 12.6109 1.53912 10.7922 2.47566C9.00575 3.40313 7.3736 4.60827 5.96167 6.04122C4.53331 7.47386 3.3503 9.13398 2.44513 10.9451C1.51698 12.7854 0.928154 14.6761 0.579873 16.7025C0.219951 18.7054 0.0960981 20.7318 0.0450645 22.7586C0.017608 23.6861 0.0146236 24.6166 0 25.544C0 26.6399 0 27.7389 0 28.8467V92.1559C0 93.2727 0 94.3659 0 95.4647C0.0146236 96.4042 0.017608 97.3141 0.0450645 98.2536C0.0960981 100.28 0.219951 102.306 0.579873 104.309C0.928154 106.336 1.51698 108.235 2.44513 110.07C3.35 111.872 4.53331 113.532 5.96136 114.953C7.37328 116.397 9.00547 117.6 10.7922 118.519C12.6109 119.464 14.4672 120.061 16.4653 120.427C18.4484 120.787 20.4596 120.906 22.4458 120.962C23.3682 120.982 24.2746 120.994 25.1881 120.994C26.2798 121 27.3611 121 28.4555 121H463.562C464.635 121 465.725 121 466.795 120.994C467.705 120.994 468.638 120.982 469.548 120.962C471.547 120.906 473.55 120.787 475.518 120.427C477.517 120.061 479.376 119.464 481.211 118.519C482.996 117.6 484.628 116.397 486.037 114.953C487.459 113.532 488.642 111.872 489.563 110.07C490.477 108.235 491.075 106.336 491.41 104.309C491.777 102.306 491.895 100.28 491.965 98.2536C491.977 97.3141 491.977 96.4042 491.977 95.4647C492 94.3659 492 93.2727 492 92.1559V28.8467C492 27.7389 492 26.6399 491.977 25.544C491.977 24.6166 491.977 23.6857 491.965 22.7583C491.895 20.7318 491.777 18.7054 491.41 16.7022C491.075 14.6758 490.477 12.7852 489.563 10.9448C488.642 9.13398 487.459 7.47355 486.037 6.04091C484.628 4.60827 482.996 3.40282 481.211 2.47536C479.376 1.53882 477.517 0.933211 475.518 0.578681C473.55 0.218405 471.547 0.0940775 469.548 0.0438625C468.638 0.02904 467.705 0.011495 466.795 0.005445C465.725 0 464.632 0 463.562 0Z" fill="#A6A6A6"/>
<path d="M25.2028 118.353C24.2934 118.353 23.4062 118.342 22.504 118.321C20.8354 118.273 18.8564 118.179 16.9258 117.827C15.1041 117.493 13.4854 116.95 11.9815 116.17C10.4252 115.37 9.02639 114.336 7.81232 113.095C6.57646 111.866 5.56087 110.454 4.76672 108.87C3.99288 107.343 3.46403 105.704 3.14619 103.857C2.78179 101.822 2.68868 99.7571 2.64929 98.1853C2.63048 97.5475 2.60571 95.4233 2.60571 95.4233V25.544C2.60571 25.544 2.63198 23.4525 2.64929 22.8381C2.68868 21.2533 2.78179 19.19 3.1432 17.1751C3.46253 15.3186 3.99139 13.6806 4.76524 12.1472C5.5579 10.5609 6.57498 9.14155 7.79471 7.91855C9.02904 6.66589 10.4338 5.62923 11.9798 4.82548C13.5128 4.03687 15.1289 3.4975 16.9139 3.18018C18.9233 2.81536 20.9607 2.7237 22.5111 2.68377L25.2043 2.64687H466.783L469.505 2.68529C471.035 2.7237 473.074 2.81536 475.053 3.17715C476.85 3.49629 478.478 4.03835 480.04 4.83453C481.57 5.62923 482.972 6.6662 484.19 7.90672C485.413 9.1355 486.436 10.5624 487.248 12.1548C488.017 13.7011 488.54 15.3392 488.845 17.1427C489.189 19.0511 489.298 21.011 489.364 22.8514C489.372 23.7081 489.372 24.6283 489.372 25.544C489.396 26.6784 489.396 27.758 489.396 28.8467V92.1559C489.396 93.2551 489.396 94.3273 489.372 95.4085C489.372 96.3921 489.372 97.2934 489.36 98.2208C489.298 100.002 489.189 101.961 488.849 103.828C488.54 105.683 488.017 107.322 487.236 108.879C486.432 110.451 485.409 111.872 484.206 113.071C482.972 114.336 481.574 115.366 480.032 116.164C478.482 116.962 476.904 117.49 475.053 117.827C473.14 118.179 471.16 118.273 469.473 118.321C468.599 118.342 467.685 118.353 466.795 118.353L463.562 118.359L25.2028 118.353Z" fill="black"/>
<path d="M64.0148 23.2505C43.2081 23.2505 26.28 40.1786 26.28 60.9852C26.28 81.7919 43.2081 98.72 64.0148 98.72C84.8215 98.72 101.75 81.7936 101.75 60.9852C101.75 40.1769 84.8215 23.2505 64.0148 23.2505ZM79.9868 77.9461C79.5128 78.6579 78.7322 79.0416 77.9368 79.0416C77.4677 79.0416 76.9938 78.9088 76.5739 78.6284C72.5182 75.924 65.64 74.12 59.9 74.1216C53.8091 74.1249 49.2433 75.6206 49.1974 75.6354C47.9116 76.0716 46.516 75.3697 46.0863 74.0806C45.6566 72.7916 46.3536 71.3976 47.6427 70.9696C47.8592 70.8974 53.0202 69.2066 59.9 69.2033C65.64 69.2 73.6236 70.7482 79.3045 74.5349C80.4361 75.2893 80.7412 76.8162 79.9868 77.9461ZM84.8936 67.8765C84.3606 68.7326 83.4406 69.2033 82.5009 69.2033C81.9925 69.2033 81.4775 69.0672 81.015 68.7769C73.6613 64.1947 66.1042 63.2255 59.5934 63.2829C52.2429 63.3485 46.3651 64.7507 46.2651 64.7802C44.7776 65.2033 43.213 64.3341 42.7883 62.8401C42.3635 61.3428 43.2344 59.7864 44.73 59.3633C45.1843 59.2337 51.0506 57.7905 59.0817 57.7233C66.4043 57.6626 75.5292 58.7237 83.9949 63.9979C85.3118 64.8179 85.7169 66.5563 84.8936 67.8765ZM89.789 56.1013C89.1773 57.1411 88.0818 57.72 86.9568 57.72C86.3926 57.72 85.8219 57.574 85.2987 57.269C76.7281 52.2375 66.3075 51.1698 59.0751 51.16C59.0407 51.16 59.0062 51.16 58.9718 51.16C50.2257 51.16 43.4902 52.6983 43.423 52.7147C41.655 53.1198 39.8953 52.0276 39.4853 50.2629C39.0753 48.4999 40.1692 46.7386 41.9322 46.3269C42.2356 46.2564 49.4319 44.6 58.9718 44.6C59.0095 44.6 59.0472 44.6 59.085 44.6C67.1292 44.6115 78.783 45.8349 88.6214 51.611C90.1826 52.5294 90.7058 54.54 89.789 56.1013Z" fill="#1DB954"/>
<path d="M122.081 66.15C122.081 64.9833 122.581 64 123.581 63.2C124.581 62.3667 125.981 61.95 127.781 61.95C129.381 61.95 130.964 62.2667 132.531 62.9C134.098 63.5 135.681 64.3833 137.281 65.55L140.581 60.9C138.781 59.4667 136.848 58.3833 134.781 57.65C132.748 56.8833 130.448 56.5 127.881 56.5C126.148 56.5 124.548 56.75 123.081 57.25C121.614 57.7167 120.348 58.4 119.281 59.3C118.248 60.2 117.431 61.2833 116.831 62.55C116.231 63.7833 115.931 65.1667 115.931 66.7C115.931 68.3333 116.181 69.7167 116.681 70.85C117.214 71.9833 117.964 72.95 118.931 73.75C119.931 74.55 121.148 75.2167 122.581 75.75C124.048 76.2833 125.714 76.7667 127.581 77.2C129.214 77.6 130.531 77.9833 131.531 78.35C132.564 78.7167 133.364 79.1167 133.931 79.55C134.531 79.95 134.931 80.4 135.131 80.9C135.364 81.4 135.481 81.9667 135.481 82.6C135.481 83.9667 134.914 85.05 133.781 85.85C132.681 86.65 131.181 87.05 129.281 87.05C127.081 87.05 125.114 86.6667 123.381 85.9C121.648 85.1 119.931 83.9667 118.231 82.5L114.531 86.9C116.631 88.8 118.914 90.2167 121.381 91.15C123.848 92.05 126.431 92.5 129.131 92.5C130.964 92.5 132.648 92.2667 134.181 91.8C135.714 91.3333 137.031 90.65 138.131 89.75C139.231 88.85 140.081 87.75 140.681 86.45C141.314 85.15 141.631 83.6667 141.631 82C141.631 80.5333 141.381 79.2667 140.881 78.2C140.414 77.1 139.714 76.15 138.781 75.35C137.848 74.5167 136.664 73.8167 135.231 73.25C133.831 72.6833 132.214 72.1667 130.381 71.7C128.714 71.3 127.331 70.9167 126.231 70.55C125.164 70.1833 124.314 69.7833 123.681 69.35C123.081 68.9167 122.664 68.45 122.431 67.95C122.198 67.45 122.081 66.85 122.081 66.15Z" fill="white"/>
<path d="M171.713 78.8C171.713 76.6 171.363 74.65 170.663 72.95C169.963 71.25 169.03 69.8167 167.863 68.65C166.73 67.45 165.43 66.55 163.963 65.95C162.497 65.35 160.98 65.05 159.413 65.05C157.28 65.05 155.497 65.5333 154.063 66.5C152.63 67.4333 151.43 68.6 150.463 70V65.6H144.413V100H150.463V87.9C151.397 89.1333 152.58 90.2167 154.013 91.15C155.447 92.0833 157.247 92.55 159.413 92.55C160.98 92.55 162.497 92.25 163.963 91.65C165.463 91.05 166.78 90.1667 167.913 89C169.08 87.8 169.997 86.35 170.663 84.65C171.363 82.95 171.713 81 171.713 78.8ZM165.563 78.8C165.563 80.1 165.363 81.2833 164.963 82.35C164.563 83.3833 164.013 84.2667 163.313 85C162.647 85.7333 161.847 86.3 160.913 86.7C160.013 87.1 159.047 87.3 158.013 87.3C156.98 87.3 155.997 87.1 155.063 86.7C154.13 86.3 153.313 85.7333 152.613 85C151.913 84.2333 151.347 83.3333 150.913 82.3C150.513 81.2667 150.313 80.1 150.313 78.8C150.313 77.5 150.513 76.3333 150.913 75.3C151.347 74.2667 151.913 73.3833 152.613 72.65C153.313 71.8833 154.13 71.3 155.063 70.9C155.997 70.5 156.98 70.3 158.013 70.3C159.047 70.3 160.013 70.5 160.913 70.9C161.847 71.3 162.647 71.8667 163.313 72.6C164.013 73.3333 164.563 74.2333 164.963 75.3C165.363 76.3333 165.563 77.5 165.563 78.8Z" fill="white"/>
<path d="M200.859 78.8C200.859 76.9 200.509 75.1167 199.809 73.45C199.109 71.7833 198.126 70.3333 196.859 69.1C195.626 67.8333 194.143 66.85 192.409 66.15C190.709 65.4167 188.843 65.05 186.809 65.05C184.776 65.05 182.893 65.4167 181.159 66.15C179.459 66.8833 177.976 67.8833 176.709 69.15C175.476 70.3833 174.493 71.85 173.759 73.55C173.059 75.2167 172.709 77 172.709 78.9C172.709 80.8 173.059 82.5833 173.759 84.25C174.459 85.8833 175.426 87.3333 176.659 88.6C177.926 89.8333 179.409 90.8167 181.109 91.55C182.843 92.25 184.709 92.6 186.709 92.6C188.743 92.6 190.626 92.2333 192.359 91.5C194.093 90.7667 195.576 89.7833 196.809 88.55C198.076 87.2833 199.059 85.8167 199.759 84.15C200.493 82.4833 200.859 80.7 200.859 78.8ZM194.809 78.9C194.809 80.0667 194.626 81.1667 194.259 82.2C193.893 83.2 193.359 84.0833 192.659 84.85C191.959 85.6167 191.109 86.2333 190.109 86.7C189.143 87.1333 188.043 87.35 186.809 87.35C185.643 87.35 184.559 87.1333 183.559 86.7C182.593 86.2333 181.743 85.6167 181.009 84.85C180.309 84.0833 179.759 83.1833 179.359 82.15C178.959 81.0833 178.759 79.9667 178.759 78.8C178.759 77.6333 178.943 76.55 179.309 75.55C179.676 74.5167 180.209 73.6167 180.909 72.85C181.609 72.0833 182.443 71.4833 183.409 71.05C184.409 70.5833 185.509 70.35 186.709 70.35C187.909 70.35 188.993 70.5833 189.959 71.05C190.959 71.4833 191.809 72.1 192.509 72.9C193.243 73.6667 193.809 74.5667 194.209 75.6C194.609 76.6333 194.809 77.7333 194.809 78.9Z" fill="white"/>
<path d="M210.571 70.8H217.671V65.6H210.571V58.35H204.521V65.6H201.171V70.8H204.521V84.7C204.521 86.1667 204.704 87.4 205.071 88.4C205.437 89.3667 205.954 90.15 206.621 90.75C207.321 91.35 208.137 91.7833 209.071 92.05C210.004 92.3167 211.021 92.45 212.121 92.45C213.254 92.45 214.254 92.3333 215.121 92.1C215.987 91.8667 216.804 91.5333 217.571 91.1V86.15C216.371 86.75 215.121 87.05 213.821 87.05C212.787 87.05 211.987 86.8 211.421 86.3C210.854 85.7667 210.571 84.9167 210.571 83.75V70.8Z" fill="white"/>
<path d="M226.629 61.55V55.8H220.129V61.55H226.629ZM226.429 92V65.6H220.379V92H226.429Z" fill="white"/>
<path d="M237.885 65.8V64.35C237.885 61.6833 239.052 60.35 241.385 60.35C242.052 60.35 242.652 60.4167 243.185 60.55C243.752 60.65 244.335 60.8 244.935 61V55.9C244.269 55.7 243.552 55.5333 242.785 55.4C242.019 55.2667 241.102 55.2 240.035 55.2C237.435 55.2 235.435 55.9167 234.035 57.35C232.635 58.75 231.935 60.9167 231.935 63.85V65.75H228.585V70.8H231.935V92H237.985V70.8H244.885V65.8H237.885Z" fill="white"/>
<path d="M270.234 65.6H263.934L257.084 85.2L249.584 65.6H243.134L254.134 92C253.634 93.1667 253.101 93.9667 252.534 94.4C251.967 94.8333 251.251 95.05 250.384 95.05C249.751 95.05 249.134 94.95 248.534 94.75C247.967 94.5833 247.401 94.35 246.834 94.05L244.784 98.55C245.717 99.05 246.667 99.4333 247.634 99.7C248.634 100 249.767 100.15 251.034 100.15C252.101 100.15 253.051 100.017 253.884 99.75C254.717 99.4833 255.484 99.05 256.184 98.45C256.884 97.8833 257.517 97.1333 258.084 96.2C258.651 95.2667 259.201 94.1167 259.734 92.75L270.234 65.6Z" fill="white"/>
<path d="M122.52 28.23C120.527 28.23 118.958 28.8973 117.814 30.232C116.67 31.5667 116.098 33.3953 116.098 35.718C116.098 38.0233 116.627 39.852 117.684 41.204C118.759 42.5387 120.362 43.206 122.494 43.206C123.309 43.206 124.08 43.1367 124.808 42.998C125.536 42.8593 126.247 42.686 126.94 42.478V44.506C126.247 44.766 125.527 44.9567 124.782 45.078C124.054 45.1993 123.179 45.26 122.156 45.26C120.267 45.26 118.689 44.87 117.424 44.09C116.159 43.31 115.205 42.2007 114.564 40.762C113.94 39.3233 113.628 37.6333 113.628 35.692C113.628 33.82 113.966 32.1733 114.642 30.752C115.335 29.3133 116.349 28.1953 117.684 27.398C119.019 26.5833 120.639 26.176 122.546 26.176C124.505 26.176 126.212 26.54 127.668 27.268L126.732 29.244C126.16 28.984 125.519 28.75 124.808 28.542C124.115 28.334 123.352 28.23 122.52 28.23Z" fill="white"/>
<path d="M141.288 45H138.974V32.962H134.866C134.64 35.8913 134.328 38.2573 133.93 40.06C133.531 41.8453 133.002 43.1453 132.344 43.96C131.685 44.7747 130.853 45.182 129.848 45.182C129.622 45.182 129.397 45.1647 129.172 45.13C128.964 45.1127 128.79 45.0693 128.652 45V43.284C128.756 43.3187 128.868 43.3447 128.99 43.362C129.111 43.3793 129.232 43.388 129.354 43.388C130.29 43.388 131.035 42.3913 131.59 40.398C132.162 38.4047 132.595 35.2933 132.89 31.064H141.288V45Z" fill="white"/>
<path d="M143.527 31.064H145.971L148.987 38.994C149.247 39.6873 149.481 40.3547 149.689 40.996C149.897 41.62 150.053 42.218 150.157 42.79H150.261C150.365 42.3567 150.53 41.7933 150.755 41.1C150.98 40.3893 151.214 39.6787 151.457 38.968L154.291 31.064H156.761L150.755 46.924C150.27 48.2413 149.637 49.29 148.857 50.07C148.094 50.85 147.037 51.24 145.685 51.24C145.269 51.24 144.905 51.214 144.593 51.162C144.281 51.1273 144.012 51.084 143.787 51.032V49.212C143.978 49.2467 144.203 49.2813 144.463 49.316C144.74 49.3507 145.026 49.368 145.321 49.368C146.118 49.368 146.76 49.1427 147.245 48.692C147.748 48.2413 148.138 47.6433 148.415 46.898L149.143 45.052L143.527 31.064Z" fill="white"/>
<path d="M177.867 31.064V45H158.965V31.064H161.253V43.076H167.259V31.064H169.547V43.076H175.579V31.064H177.867Z" fill="white"/>
<path d="M187.602 30.83C189.301 30.83 190.558 31.2027 191.372 31.948C192.187 32.6933 192.594 33.8807 192.594 35.51V45H190.93L190.488 43.024H190.384C189.778 43.7867 189.136 44.35 188.46 44.714C187.802 45.078 186.883 45.26 185.704 45.26C184.439 45.26 183.39 44.9307 182.558 44.272C181.726 43.596 181.31 42.5473 181.31 41.126C181.31 39.7393 181.856 38.6733 182.948 37.928C184.04 37.1653 185.722 36.7493 187.992 36.68L190.358 36.602V35.77C190.358 34.6087 190.107 33.8027 189.604 33.352C189.102 32.9013 188.391 32.676 187.472 32.676C186.744 32.676 186.051 32.7887 185.392 33.014C184.734 33.222 184.118 33.4647 183.546 33.742L182.844 32.026C183.451 31.6967 184.17 31.4193 185.002 31.194C185.834 30.9513 186.701 30.83 187.602 30.83ZM188.278 38.266C186.545 38.3353 185.34 38.6127 184.664 39.098C184.006 39.5833 183.676 40.268 183.676 41.152C183.676 41.932 183.91 42.504 184.378 42.868C184.864 43.232 185.479 43.414 186.224 43.414C187.403 43.414 188.382 43.0933 189.162 42.452C189.942 41.7933 190.332 40.788 190.332 39.436V38.188L188.278 38.266Z" fill="white"/>
<path d="M208.182 25.292C208.061 26.592 207.619 27.58 206.856 28.256C206.111 28.9147 204.915 29.244 203.268 29.244C201.57 29.244 200.365 28.9147 199.654 28.256C198.961 27.5973 198.571 26.6093 198.484 25.292H200.616C200.703 26.228 200.946 26.8607 201.344 27.19C201.76 27.502 202.419 27.658 203.32 27.658C204.118 27.658 204.742 27.4933 205.192 27.164C205.66 26.8173 205.938 26.1933 206.024 25.292H208.182ZM199.056 39.566C199.056 39.774 199.048 40.086 199.03 40.502C199.013 40.918 198.987 41.334 198.952 41.75C198.935 42.166 198.918 42.4953 198.9 42.738L206.362 31.064H209.17V45H207.038V36.784C207.038 36.5067 207.038 36.1427 207.038 35.692C207.056 35.2413 207.073 34.7993 207.09 34.366C207.108 33.9153 207.125 33.5773 207.142 33.352L199.732 45H196.898V31.064H199.056V39.566Z" fill="white"/>
<path d="M223.225 32.988H218.675V45H216.413V32.988H211.915V31.064H223.225V32.988Z" fill="white"/>
<path d="M231.099 30.804C232.295 30.804 233.317 31.064 234.167 31.584C235.033 32.104 235.692 32.8407 236.143 33.794C236.611 34.73 236.845 35.8307 236.845 37.096V38.474H227.303C227.337 40.0513 227.736 41.256 228.499 42.088C229.279 42.9027 230.362 43.31 231.749 43.31C232.633 43.31 233.413 43.232 234.089 43.076C234.782 42.9027 235.493 42.66 236.221 42.348V44.35C235.51 44.662 234.808 44.8873 234.115 45.026C233.421 45.182 232.598 45.26 231.645 45.26C230.327 45.26 229.157 44.9913 228.135 44.454C227.129 43.9167 226.341 43.1193 225.769 42.062C225.214 40.9873 224.937 39.6787 224.937 38.136C224.937 36.6107 225.188 35.302 225.691 34.21C226.211 33.118 226.93 32.2773 227.849 31.688C228.785 31.0987 229.868 30.804 231.099 30.804ZM231.073 32.676C229.981 32.676 229.114 33.0313 228.473 33.742C227.849 34.4353 227.476 35.406 227.355 36.654H234.453C234.435 35.4753 234.158 34.522 233.621 33.794C233.083 33.0487 232.234 32.676 231.073 32.676Z" fill="white"/>
<path d="M259.393 34.574C259.393 35.4407 259.133 36.1167 258.613 36.602C258.093 37.0873 257.426 37.4167 256.611 37.59V37.694C257.478 37.8153 258.232 38.1273 258.873 38.63C259.515 39.1153 259.835 39.878 259.835 40.918C259.835 42.0967 259.393 43.076 258.509 43.856C257.643 44.6187 256.204 45 254.193 45H248.187V31.064H254.167C255.155 31.064 256.039 31.1767 256.819 31.402C257.617 31.61 258.241 31.974 258.691 32.494C259.159 32.9967 259.393 33.69 259.393 34.574ZM257.079 34.86C257.079 34.2013 256.837 33.7247 256.351 33.43C255.883 33.118 255.112 32.962 254.037 32.962H250.475V36.784H253.621C255.927 36.784 257.079 36.1427 257.079 34.86ZM257.469 40.918C257.469 40.1207 257.166 39.5487 256.559 39.202C255.953 38.8553 255.06 38.682 253.881 38.682H250.475V43.154H253.933C255.077 43.154 255.953 42.9893 256.559 42.66C257.166 42.3133 257.469 41.7327 257.469 40.918Z" fill="white"/>
</svg>
