<?xml version="1.0" encoding="UTF-8"?>
<svg width="274px" height="279px" viewBox="0 0 274 279" version="1.1" xmlns="http://www.w3.org/2000/svg"
     xmlns:xlink="http://www.w3.org/1999/xlink">
    <!-- Generator: Sketch 53.1 (72631) - https://sketchapp.com -->
    <title>Group</title>
    <desc>Created with Sketch.</desc>
    <g id="Page-1" stroke="none" stroke-width="1" fill="none" fill-rule="evenodd">
        <g id="Group" fill="#ffffff" fill-rule="nonzero">
            <g id="chat">
                <path
                        d="M137.635333,0 C137.560572,0.0747523497 137.41105,0.0747523497 137.186766,0.0747523497 C61.5284514,0.0747523497 0,61.5959362 0,137.245314 C0,168.118035 10.3413264,198.093727 29.829711,222.238736 L9.86847581,268.585193 C8.22372984,272.397562 10.0179982,276.807951 13.7560572,278.37775 C15.1017584,278.975769 16.596982,279.125274 18.0174445,278.901017 L91.2086401,266.043613 C105.861831,271.35103 121.262635,274.042114 136.81296,273.967362 C212.471275,273.967362 273.999726,212.446178 273.999726,136.7968 C274.149248,61.3716791 213.069364,0.0747523497 137.635333,0 Z M137.419602,259.332682 C123.014634,259.332682 108.75894,256.722548 95.2496172,251.65143 C93.9807858,251.129403 92.6373172,251.054828 91.2938487,251.278553 L29.7928445,262.017391 L46.0637412,224.207733 C47.1832983,221.597599 46.7354755,218.540013 44.869547,216.37733 C36.0623643,206.160519 29.0464731,194.526778 24.1204217,181.923559 C18.5972733,167.828834 15.7610619,152.839206 15.7610619,137.700428 C15.7610619,70.4335401 70.3447235,15.7698722 137.792788,15.7698722 C204.891577,15.6207217 259.37669,69.836938 259.451327,136.8801 C259.451327,137.02925 259.451327,137.178401 259.451327,137.327551 C259.451327,204.669014 204.667666,259.332682 137.419602,259.332682 Z"
                        id="Shape"
                        style="transform-origin: 50% 50%"
                >
                    <animate
                            attributeName="opacity"
                            from="0"
                            to="1"
                            dur="0.2"
                            fill="freeze"
                    />
                </path>
            </g>
            <path
                    d="M61.9277344,119 L61.9277344,76.9882812 L79.5058594,76.9882812 C81.8300897,76.9882812 83.9345609,77.3984334 85.8193359,78.21875 C87.704111,79.0390666 89.315423,80.1425712 90.6533203,81.5292969 C91.9912176,82.9160226 93.0214808,84.5273346 93.7441406,86.3632812 C94.4668005,88.1992279 94.828125,90.1425679 94.828125,92.1933594 C94.828125,94.2246195 94.4668005,96.1581939 93.7441406,97.9941406 C93.0214808,99.8300873 91.9912176,101.441399 90.6533203,102.828125 C89.315423,104.214851 87.704111,105.318355 85.8193359,106.138672 C83.9345609,106.958988 81.8300897,107.369141 79.5058594,107.369141 L71.6542969,107.369141 L71.6542969,119 L61.9277344,119 Z M71.6542969,99.4296875 L78.3046875,99.4296875 C79.3007862,99.4296875 80.2236286,99.2294942 81.0732422,98.8291016 C81.9228558,98.4287089 82.6357393,97.9013705 83.2119141,97.2470703 C83.7880888,96.5927702 84.2373031,95.8261763 84.5595703,94.9472656 C84.8818375,94.068355 85.0429688,93.1503954 85.0429688,92.1933594 C85.0429688,91.2363233 84.8818375,90.313481 84.5595703,89.4248047 C84.2373031,88.5361284 83.7880888,87.7646517 83.2119141,87.1103516 C82.6357393,86.4560514 81.9277386,85.9287129 81.0878906,85.5283203 C80.2480427,85.1279277 79.3203176,84.9277344 78.3046875,84.9277344 L71.6542969,84.9277344 L71.6542969,99.4296875 Z"
                    id="R"
                    opacity="0"
            >
                <animate
                        id="rAnimation"
                        calcMode="spline"
                        keySplines="0.4 0 0.2 1; 0.4 0 0.2 1"
                        attributeName="opacity"
                        begin="0.2"
                        from="0"
                        to="1"
                        dur="0.3"
                        fill="freeze"
                />
            </path>
            <polygon
                    id="E"
                    opacity="0"
                    points="118.732422 79 118.732422 36.9882812 144.367188 36.9882812 144.367188 44.8105469 128.458984 44.8105469 128.458984 54.3320312 144.367188 54.3320312 144.367188 61.9492188 128.458984 61.9492188 128.458984 71.2070312 144.367188 71.2070312 144.367188 79"
            >
                <animate
                        id="eAnimation"
                        calcMode="spline"
                        keySplines="0.4 0 0.2 1; 0.4 0 0.2 1"
                        attributeName="opacity"
                        begin="rAnimation.end"
                        from="0"
                        to="1"
                        dur="0.3"
                        fill="freeze"
                />
            </polygon>
            <polygon
                    id="P"
                    opacity="0"
                    points="187.089844 115 187.089844 72.9882812 220.986328 72.9882812 220.986328 115 211.289062 115 211.289062 81.2792969 196.816406 81.2792969 196.816406 115"
            >
                <animate
                        id="pAnimation"
                        calcMode="spline"
                        keySplines="0.4 0 0.2 1; 0.4 0 0.2 1"
                        attributeName="opacity"
                        begin="eAnimation.end"
                        from="0"
                        to="1"
                        dur="0.3"
                        fill="freeze"
                />
            </polygon>
            <path
                    d="M49.8710938,188.908203 L49.8710938,181.027344 L52.7128906,181.027344 C53.630864,181.027344 54.3486302,180.807619 54.8662109,180.368164 C55.3837917,179.928709 55.6425781,179.308598 55.6425781,178.507812 L55.6425781,145.988281 L87.9863281,145.988281 L87.9863281,188 L78.2597656,188 L78.2597656,154.279297 L65.3691406,154.279297 L65.3691406,179.591797 C65.3691406,181.23243 65.1298852,182.643549 64.6513672,183.825195 C64.1728492,185.006842 63.494145,185.968746 62.6152344,186.710938 C61.7363237,187.453129 60.6865295,188.004881 59.4658203,188.366211 C58.2451111,188.727541 56.9121166,188.908203 55.4667969,188.908203 L49.8710938,188.908203 Z"
                    id="L"
                    opacity="0"
            >
                <animate
                        id="lAnimation"
                        calcMode="spline"
                        keySplines="0.4 0 0.2 1; 0.4 0 0.2 1"
                        attributeName="opacity"
                        begin="pAnimation.end"
                        from="0"
                        to="1"
                        dur="0.3"
                        fill="freeze"
                />
            </path>
            <polygon
                    id="I"
                    opacity="0"
                    points="109.679688 235 109.679688 192.988281 119.40625 192.988281 119.40625 219.150391 134.289062 195.888672 134.289062 192.988281 144.015625 192.988281 144.015625 235 134.289062 235 134.289062 208.837891 119.40625 232.128906 119.40625 235"
            >
                <animate
                        id="iAnimation"
                        calcMode="spline"
                        keySplines="0.4 0 0.2 1; 0.4 0 0.2 1"
                        attributeName="opacity"
                        begin="lAnimation.end"
                        from="0"
                        to="1"
                        dur="0.3"
                        fill="freeze"
                />
            </polygon>
            <path
                    d="M189.492188,204 L189.492188,161.988281 L199.21875,161.988281 L199.21875,178.394531 L199.951172,178.394531 C201.025396,178.394531 202.041011,178.062503 202.998047,177.398438 C203.955083,176.734372 204.892574,175.601571 205.810547,174 L209.179688,168.169922 C210.410162,166.041005 211.835929,164.429693 213.457031,163.335938 C215.078133,162.242182 217.070301,161.695312 219.433594,161.695312 L222.802734,161.695312 L222.802734,170.220703 L221.484375,170.220703 C220.366402,170.220703 219.677739,170.420896 218.818359,170.821289 C217.95898,171.221682 217.148441,172.037103 216.386719,173.267578 L214.042969,177.310547 C213.359372,178.462896 212.485357,179.507808 211.420898,180.445312 C210.35644,181.382817 209.130866,182.056639 207.744141,182.466797 L224.355469,204 L212.607422,204 L199.21875,185.103516 L199.21875,204 L189.492188,204 Z"
                    id="C"
                    opacity="0"
            >
                <animate
                        id="cAnimation"
                        attributeName="opacity"
                        calcMode="spline"
                        keySplines="0.4 0 0.2 1; 0.4 0 0.2 1"
                        begin="iAnimation.end"
                        from="0"
                        to="1"
                        dur="0.3"
                        fill="freeze"
                />
            </path>
            <path
                    d="M126.654297,155 L141.654297,112.988281 L150.389844,112.988281 L165.765625,155 L155.21875,155 L153.607422,149.902344 L138.666016,149.902344 L137.025391,155 L126.654297,155 Z M141.009766,142.285156 L151.205078,142.285156 L146.166016,125 L141.009766,142.285156 Z"
                    id="A"
                    opacity="0"
            >
                <animate
                        id="aAnimation"
                        attributeName="opacity"
                        calcMode="spline"
                        keySplines="0.4 0 0.2 1; 0.4 0 0.2 1"
                        begin="cAnimation.end"
                        from="0"
                        to="1"
                        dur="0.3"
                        fill="freeze"
                />
            </path>
        </g>
    </g>
</svg>
