<?xml version="1.0" encoding="UTF-8"?>
<svg width="343px" height="314px" viewBox="0 0 343 314" version="1.1" xmlns="http://www.w3.org/2000/svg" xmlns:xlink="http://www.w3.org/1999/xlink">
    <!-- Generator: Sketch 53.1 (72631) - https://sketchapp.com -->
    <title>Path 2</title>
    <desc>Created with Sketch.</desc>
    <g id="Page-1" stroke="none" stroke-width="1" fill="none" fill-rule="evenodd">
        <path d="M7.94445993,313.76951 C7.94445993,242.731517 7.05155363,171.687912 7.94445993,100.655531 C7.96710972,98.853697 9.63607018,94.5266155 10.681988,95.9939854 L14.8915831,95.1288232 C34.4170459,122.522061 51.511063,151.57222 70.2232238,179.527331 C75.3651038,187.209064 80.5776322,194.875944 86.4417864,202.021547 C88.8895198,205.004165 91.6010749,211.51544 95.0417567,209.769268 C98.6420616,207.942086 94.5658409,201.666274 95.0417567,197.656998 C97.3288964,178.389362 99.8126204,159.123247 103.318905,140.039779 C105.935264,125.799863 109.551018,111.748656 113.390943,97.7888741 C115.856506,88.8254905 121.2755,70.973384 127.272276,61.0130251 C127.600923,60.4671578 128.351982,60.0229045 128.976775,60.147863 C130.246393,60.4017866 131.73089,60.9087384 132.372859,62.0331417 C134.022969,64.9232949 133.884672,68.5989663 135.471947,71.5240999 C141.813835,83.2113422 176.685887,146.537604 194.057631,171.650481 C195.241972,173.362584 196.718833,174.946887 198.473832,176.066682 C199.177775,176.51584 200.921767,176.899755 200.978928,176.066682 C202.34067,156.220481 201.304896,136.262003 202.567211,116.40923 C203.295825,104.95013 204.972734,93.553426 206.944674,82.2417807 C209.611952,66.94146 212.959991,51.7617591 216.47437,36.6335297 C217.66802,31.4952652 219.297708,26.4592988 221.058439,21.4867352 C230.375544,-4.82614104 235.18833,11.3743522 248.472458,25.9804134 C253.542907,31.5554339 259.010479,36.7599709 264.458589,41.9665444 C312.524556,87.9015567 298.177511,75.0537465 337.57125,107.796347" id="Path-2" stroke="#FFFFFF" stroke-width="15"></path>
    </g>
</svg>