<svg width="126" height="31" viewBox="0 0 126 31" fill="none" xmlns="http://www.w3.org/2000/svg">
<g clip-path="url(#clip0)">
<path d="M118.717 0H7.28738C7.00711 0 6.7302 0 6.45062 0.00155C6.21667 0.0030225 5.98455 0.007595 5.74831 0.011315C5.23966 0.02418 4.7246 0.0560325 4.21672 0.148335C3.7051 0.239165 3.22963 0.39432 2.76386 0.63426C2.30635 0.871875 1.88836 1.18063 1.52677 1.54775C1.16097 1.91479 0.858004 2.34011 0.626192 2.80411C0.388494 3.27561 0.237698 3.75999 0.148504 4.27916C0.056329 4.79229 0.0246105 5.31146 0.0115409 5.83071C0.00450937 6.06833 0.00374507 6.30672 0 6.54433C0 6.82511 0 7.10667 0 7.39048V23.6102C0 23.8963 0 24.1764 0 24.4579C0.00374507 24.6986 0.00450937 24.9317 0.0115409 25.1724C0.0246105 25.6916 0.056329 26.2107 0.148504 26.7239C0.237698 27.243 0.388494 27.7297 0.626192 28.1997C0.857928 28.6614 1.16097 29.0868 1.52669 29.4508C1.88828 29.8208 2.30628 30.1289 2.76386 30.3643C3.22963 30.6065 3.70502 30.7594 4.21672 30.8531C4.7246 30.9455 5.23966 30.9758 5.74831 30.9902C5.98455 30.9954 6.21667 30.9984 6.45062 30.9984C6.7302 31 7.00711 31 7.28738 31H118.717C118.992 31 119.271 31 119.545 30.9984C119.778 30.9984 120.017 30.9954 120.25 30.9902C120.762 30.9758 121.275 30.9455 121.779 30.8531C122.291 30.7594 122.767 30.6065 123.237 30.3643C123.694 30.1289 124.112 29.8208 124.473 29.4508C124.837 29.0868 125.14 28.6614 125.376 28.1997C125.61 27.7297 125.763 27.243 125.849 26.7239C125.943 26.2107 125.973 25.6916 125.991 25.1724C125.994 24.9317 125.994 24.6986 125.994 24.4579C126 24.1764 126 23.8963 126 23.6102V7.39048C126 7.10667 126 6.82511 125.994 6.54433C125.994 6.30672 125.994 6.06825 125.991 5.83063C125.973 5.31146 125.943 4.79229 125.849 4.27908C125.763 3.75991 125.61 3.27554 125.376 2.80403C125.14 2.34011 124.837 1.91471 124.473 1.54767C124.112 1.18063 123.694 0.871798 123.237 0.634183C122.767 0.394242 122.291 0.239087 121.779 0.148257C121.275 0.055955 120.762 0.0241025 120.25 0.0112375C120.017 0.00744 119.778 0.002945 119.545 0.001395C119.271 0 118.991 0 118.717 0Z" fill="#A6A6A6"/>
<path d="M6.45437 30.3219C6.22148 30.3219 5.99426 30.3189 5.76321 30.3136C5.33589 30.3014 4.82908 30.2772 4.33465 30.1872C3.86813 30.1016 3.45357 29.9624 3.06844 29.7626C2.66985 29.5575 2.31163 29.2926 2.00071 28.9747C1.68421 28.6599 1.42412 28.2981 1.22074 27.8924C1.02256 27.5012 0.887124 27.0811 0.805726 26.6081C0.712405 26.0867 0.688558 25.5576 0.67847 25.1549C0.673654 24.9915 0.667311 24.4473 0.667311 24.4473V6.54433C0.667311 6.54433 0.674037 6.0085 0.67847 5.85109C0.688558 5.44507 0.712404 4.91644 0.804961 4.40022C0.886741 3.9246 1.02218 3.50494 1.22036 3.11209C1.42336 2.70568 1.68383 2.34205 1.9962 2.02872C2.31231 1.70779 2.67207 1.4422 3.06798 1.23628C3.4606 1.03424 3.87447 0.896054 4.3316 0.814756C4.8462 0.721291 5.36799 0.697808 5.76504 0.687578L6.45475 0.678123H119.542L120.239 0.687966C120.631 0.697808 121.153 0.721291 121.66 0.813981C122.12 0.895743 122.537 1.03462 122.937 1.2386C123.329 1.4422 123.688 1.70787 124 2.02569C124.313 2.3405 124.575 2.70607 124.783 3.11403C124.98 3.51021 125.114 3.92987 125.192 4.39192C125.28 4.88087 125.308 5.38299 125.325 5.8545C125.327 6.07398 125.327 6.30974 125.327 6.54433C125.333 6.83496 125.333 7.11155 125.333 7.39048V23.6102C125.333 23.8918 125.333 24.1665 125.327 24.4435C125.327 24.6955 125.327 24.9264 125.324 25.164C125.308 25.6204 125.28 26.1222 125.193 26.6005C125.114 27.0758 124.98 27.4958 124.78 27.8947C124.574 28.2973 124.312 28.6614 124.004 28.9686C123.688 29.2926 123.33 29.5567 122.935 29.7611C122.538 29.9654 122.134 30.1008 121.66 30.1872C121.17 30.2772 120.663 30.3014 120.231 30.3136C120.007 30.3189 119.773 30.3219 119.545 30.3219L118.717 30.3234L6.45437 30.3219Z" fill="black"/>
<path fill-rule="evenodd" clip-rule="evenodd" d="M24.5968 22.6518C24.4098 23.1333 23.9785 23.8113 23.3667 24.2888C23.0135 24.5646 22.5919 24.8283 22.0127 25.0023C21.3953 25.1878 20.6348 25.2505 19.6883 25.2505H11.0339C10.0875 25.2505 9.32699 25.1878 8.70951 25.0023C8.13032 24.8283 7.70874 24.5646 7.35548 24.2888C6.74381 23.8112 6.31236 23.1333 6.12541 22.6518C5.74884 21.6816 5.74502 20.5809 5.74502 19.8877V11.112C5.74502 10.4188 5.74884 9.31806 6.12541 8.34791C6.31236 7.86641 6.74373 7.18844 7.35548 6.71088C7.70866 6.43506 8.13032 6.1714 8.70951 5.99742C9.32691 5.81188 10.0874 5.74918 11.0339 5.74918H19.6884C20.6348 5.74918 21.3953 5.81188 22.0128 5.99742C22.592 6.1714 23.0135 6.43514 23.3668 6.71088C23.9785 7.18851 24.4099 7.86641 24.5969 8.34791C24.9734 9.31806 24.9773 10.4188 24.9773 11.112V19.8877C24.9772 20.5808 24.9734 21.6816 24.5968 22.6518Z" fill="url(#paint0_linear)"/>
<path d="M29.8333 9.05177C29.8333 7.55206 30.6204 6.62571 31.8878 6.62571C32.8927 6.62571 33.6701 7.28608 33.784 8.22833H33.079C32.9466 7.66111 32.4883 7.29554 31.8878 7.29554C31.069 7.29554 30.557 7.9718 30.557 9.05177C30.557 10.1287 31.069 10.8046 31.8907 10.8046C32.4945 10.8046 32.9528 10.4746 33.079 9.95239H33.784C33.6575 10.8655 32.9085 11.4744 31.8907 11.4744C30.6234 11.4744 29.8333 10.5484 29.8333 9.05177Z" fill="white"/>
<path d="M34.5087 11.3975C34.3949 11.3975 34.3158 11.3752 34.2747 11.3593V10.7149C34.3064 10.7248 34.3728 10.7406 34.4579 10.7406C34.793 10.7406 34.9132 10.3338 34.9542 9.73105L35.0744 7.87268H37.4445V11.3624H36.7649V8.45238H35.6748L35.58 9.76663C35.5137 10.7599 35.2704 11.3975 34.5087 11.3975Z" fill="white"/>
<path d="M38.647 12.6123V12.0193C38.7007 12.0292 38.8048 12.0322 38.8684 12.0322C39.1904 12.0322 39.374 11.8975 39.4909 11.5452L39.5412 11.3753L38.2963 7.87268H39.0356L39.8984 10.6446H39.9521L40.812 7.87268H41.5326L40.2492 11.5067C39.9555 12.3558 39.6301 12.6283 38.9281 12.6283C38.8713 12.6282 38.7101 12.6217 38.647 12.6123Z" fill="white"/>
<path d="M42.3838 7.8726H43.0634V10.7823H44.2487V7.8726H44.9283V10.7823H46.1132V7.8726H46.7929V11.3624H42.3839V7.8726H42.3838Z" fill="white"/>
<path d="M47.7388 10.3755C47.7388 9.74733 48.2001 9.38517 49.0189 9.33371L49.9511 9.27923V8.97799C49.9511 8.6094 49.7107 8.40131 49.2461 8.40131C48.8669 8.40131 48.6046 8.54244 48.5288 8.7892H47.8712C47.941 8.18981 48.497 7.80533 49.2777 7.80533C50.1406 7.80533 50.6272 8.24088 50.6272 8.97806V11.3625H49.973V10.8721H49.9192C49.7139 11.2214 49.3378 11.42 48.8859 11.42C48.2221 11.4199 47.7388 11.0131 47.7388 10.3755ZM49.9511 10.0772V9.78546L49.1103 9.83994C48.6363 9.8721 48.4214 10.0356 48.4214 10.3432C48.4214 10.6573 48.6901 10.8401 49.0598 10.8401C49.5719 10.8402 49.9511 10.5098 49.9511 10.0772Z" fill="white"/>
<path d="M51.7506 11.3624V7.8726H52.4239V10.2729H52.4776L54.0641 7.8726H54.7374V11.3624H54.0641V8.94916H54.0137L52.4239 11.3624H51.7506ZM52.6609 6.2923C52.6609 6.63555 52.8758 6.93028 53.2202 6.93028C53.5711 6.93028 53.783 6.63547 53.786 6.2923H54.3487C54.3487 6.91401 53.8968 7.37567 53.2202 7.37567C52.5439 7.37567 52.095 6.91401 52.095 6.2923H52.6609Z" fill="white"/>
<path d="M58.4461 8.4523H57.3619V11.3624H56.6823V8.4523H55.5985V7.8726H58.4461V8.4523Z" fill="white"/>
<path d="M62.1042 10.4201C61.9493 11.0452 61.3992 11.4297 60.6122 11.4297C59.6262 11.4297 59.0227 10.744 59.0227 9.62844C59.0227 8.51322 59.6389 7.80526 60.6092 7.80526C61.5668 7.80526 62.1453 8.46866 62.1453 9.56451V9.80483H59.7147V9.84343C59.7367 10.4554 60.0875 10.8432 60.6312 10.8432C61.0421 10.8432 61.3235 10.6926 61.45 10.4201H62.1042ZM59.7146 9.29543H61.4529C61.4372 8.7475 61.1084 8.39139 60.6057 8.39139C60.1035 8.39139 59.7526 8.75052 59.7146 9.29543Z" fill="white"/>
<path d="M67.2494 9.84986H65.6625V11.3624H64.9833V7.87268H65.6625V9.26977H67.2494V7.87268H67.9256V11.3624H67.2494V9.84986Z" fill="white"/>
<path d="M68.8743 10.3755C68.8743 9.74733 69.3363 9.38517 70.1543 9.33371L71.0865 9.27923V8.97799C71.0865 8.6094 70.8469 8.40131 70.3819 8.40131C70.0028 8.40131 69.7408 8.54244 69.6646 8.7892H69.007C69.0764 8.18981 69.6332 7.80533 70.4139 7.80533C71.276 7.80533 71.7634 8.24088 71.7634 8.97806V11.3625H71.1089V10.8721H71.0551C70.8498 11.2214 70.4737 11.42 70.0214 11.42C69.3579 11.4199 68.8743 11.0131 68.8743 10.3755ZM71.0865 10.0772V9.78546L70.2461 9.83994C69.7722 9.8721 69.5572 10.0356 69.5572 10.3432C69.5572 10.6573 69.8259 10.8401 70.1954 10.8401C70.7074 10.8402 71.0865 10.5098 71.0865 10.0772Z" fill="white"/>
<path d="M36.236 21.456C36.236 19.632 34.76 19.176 33.428 18.864C32.096 18.552 31.736 18.384 31.736 17.856C31.736 17.484 32.036 17.1 32.936 17.1C33.704 17.1 34.304 17.412 34.844 17.964L36.056 16.788C35.264 15.96 34.304 15.468 32.996 15.468C31.34 15.468 29.996 16.404 29.996 17.928C29.996 19.584 31.076 20.076 32.624 20.436C34.208 20.796 34.496 21.036 34.496 21.576C34.496 22.212 34.028 22.488 33.032 22.488C32.228 22.488 31.472 22.212 30.884 21.528L29.672 22.608C30.308 23.544 31.532 24.132 32.936 24.132C35.228 24.132 36.236 23.052 36.236 21.456ZM44.807 19.8C44.807 17.244 43.451 15.468 41.159 15.468C38.867 15.468 37.511 17.244 37.511 19.8C37.511 22.356 38.867 24.132 41.159 24.132C43.451 24.132 44.807 22.356 44.807 19.8ZM43.079 19.8C43.079 21.3 42.515 22.464 41.159 22.464C39.803 22.464 39.239 21.3 39.239 19.8C39.239 18.3 39.803 17.136 41.159 17.136C42.515 17.136 43.079 18.3 43.079 19.8ZM53.2654 20.292V15.6H51.5854V20.316C51.5854 21.66 50.9254 22.488 49.8574 22.488C48.7894 22.488 48.1414 21.636 48.1414 20.292V15.6H46.4614V20.316C46.4614 22.764 47.8294 24.132 49.8574 24.132C51.9934 24.132 53.2654 22.728 53.2654 20.292ZM62.1731 24V15.6H60.5171V19.152C60.5171 19.62 60.5411 20.676 60.5411 20.988C60.4331 20.772 60.1571 20.352 59.9531 20.04L56.9771 15.6H55.3691V24H57.0251V20.304C57.0251 19.836 57.0011 18.78 57.0011 18.468C57.1091 18.684 57.3851 19.104 57.5891 19.416L60.6731 24H62.1731ZM71.1379 19.8C71.1379 16.728 69.3619 15.6 66.9619 15.6H64.3339V24H66.8419C69.0019 24 71.1379 22.752 71.1379 19.8ZM69.4099 19.8C69.4099 21.336 68.6059 22.368 66.8419 22.368H66.0139V17.232H66.9019C68.6779 17.232 69.4099 18.084 69.4099 19.8ZM79.1783 17.328C78.6503 16.236 77.6903 15.468 76.1063 15.468C73.9103 15.468 72.3743 17.244 72.3743 19.8C72.3743 22.452 73.8503 24.132 76.0463 24.132C77.5703 24.132 78.5783 23.424 79.1543 22.236L77.7383 21.396C77.2943 22.14 76.8503 22.464 76.0943 22.464C74.8343 22.464 74.1023 21.312 74.1023 19.8C74.1023 18.24 74.8223 17.136 76.0823 17.136C76.8383 17.136 77.3183 17.472 77.6183 18.048L79.1783 17.328ZM86.7493 24V22.344H82.5373V15.6H80.8573V24H86.7493ZM94.8226 19.8C94.8226 17.244 93.4666 15.468 91.1746 15.468C88.8826 15.468 87.5266 17.244 87.5266 19.8C87.5266 22.356 88.8826 24.132 91.1746 24.132C93.4666 24.132 94.8226 22.356 94.8226 19.8ZM93.0946 19.8C93.0946 21.3 92.5306 22.464 91.1746 22.464C89.8186 22.464 89.2546 21.3 89.2546 19.8C89.2546 18.3 89.8186 17.136 91.1746 17.136C92.5306 17.136 93.0946 18.3 93.0946 19.8ZM103.281 20.292V15.6H101.601V20.316C101.601 21.66 100.941 22.488 99.873 22.488C98.805 22.488 98.157 21.636 98.157 20.292V15.6H96.477V20.316C96.477 22.764 97.845 24.132 99.873 24.132C102.009 24.132 103.281 22.728 103.281 20.292ZM112.189 19.8C112.189 16.728 110.413 15.6 108.013 15.6H105.385V24H107.893C110.053 24 112.189 22.752 112.189 19.8ZM110.461 19.8C110.461 21.336 109.657 22.368 107.893 22.368H107.065V17.232H107.953C109.729 17.232 110.461 18.084 110.461 19.8Z" fill="white"/>
<path d="M10.875 15C11.0085 15 11.1398 15.0142 11.2657 15.0412C11.4345 13.3365 12.8767 12 14.625 12C14.832 12 15 12.168 15 12.375V18.375C15 18.582 14.832 18.75 14.625 18.75H10.875C9.84075 18.75 9 17.9092 9 16.875C9 15.8415 9.84075 15 10.875 15Z" fill="white"/>
<path d="M16.125 12.75C16.332 12.75 16.5 12.918 16.5 13.125V18.375C16.5 18.582 16.332 18.75 16.125 18.75C15.918 18.75 15.75 18.582 15.75 18.375V13.125C15.75 12.918 15.918 12.75 16.125 12.75Z" fill="white"/>
<path d="M17.625 14.25C17.832 14.25 18 14.418 18 14.625V18.375C18 18.582 17.832 18.75 17.625 18.75C17.418 18.75 17.25 18.582 17.25 18.375V14.625C17.25 14.418 17.418 14.25 17.625 14.25Z" fill="white"/>
<path d="M19.125 14.25C19.332 14.25 19.5 14.418 19.5 14.625V18.375C19.5 18.582 19.332 18.75 19.125 18.75C18.918 18.75 18.75 18.582 18.75 18.375V14.625C18.75 14.418 18.918 14.25 19.125 14.25Z" fill="white"/>
<path d="M20.625 15.375C20.832 15.375 21 15.543 21 15.75V18C21 18.207 20.832 18.375 20.625 18.375C20.418 18.375 20.25 18.207 20.25 18V15.75C20.25 15.543 20.418 15.375 20.625 15.375Z" fill="white"/>
</g>
<defs>
<linearGradient id="paint0_linear" x1="15.3611" y1="5.74918" x2="15.3611" y2="25.2505" gradientUnits="userSpaceOnUse">
<stop stop-color="#FF7700"/>
<stop offset="1" stop-color="#FF3300"/>
</linearGradient>
<clipPath id="clip0">
<rect width="126" height="31" fill="white"/>
</clipPath>
</defs>
</svg>
