<svg width="126" height="31" viewBox="0 0 126 31" fill="none" xmlns="http://www.w3.org/2000/svg">
<g clip-path="url(#clip0)">
<path d="M118.717 0H7.28738C7.00711 0 6.7302 0 6.45062 0.00155C6.21667 0.0030225 5.98455 0.007595 5.74831 0.011315C5.23966 0.02418 4.7246 0.0560325 4.21672 0.148335C3.7051 0.239165 3.22963 0.39432 2.76386 0.63426C2.30635 0.871875 1.88836 1.18063 1.52677 1.54775C1.16097 1.91479 0.858004 2.34011 0.626192 2.80411C0.388494 3.27561 0.237698 3.75999 0.148504 4.27916C0.056329 4.79229 0.0246105 5.31146 0.0115409 5.83071C0.00450937 6.06833 0.00374507 6.30672 0 6.54433C0 6.82511 0 7.10667 0 7.39048V23.6102C0 23.8963 0 24.1764 0 24.4579C0.00374507 24.6986 0.00450937 24.9317 0.0115409 25.1724C0.0246105 25.6916 0.056329 26.2107 0.148504 26.7239C0.237698 27.243 0.388494 27.7297 0.626192 28.1997C0.857928 28.6614 1.16097 29.0868 1.52669 29.4508C1.88828 29.8208 2.30628 30.1289 2.76386 30.3643C3.22963 30.6065 3.70502 30.7594 4.21672 30.8531C4.7246 30.9455 5.23966 30.9758 5.74831 30.9902C5.98455 30.9954 6.21667 30.9984 6.45062 30.9984C6.7302 31 7.00711 31 7.28738 31H118.717C118.992 31 119.271 31 119.545 30.9984C119.778 30.9984 120.017 30.9954 120.25 30.9902C120.762 30.9758 121.275 30.9455 121.779 30.8531C122.291 30.7594 122.767 30.6065 123.237 30.3643C123.694 30.1289 124.112 29.8208 124.473 29.4508C124.837 29.0868 125.14 28.6614 125.376 28.1997C125.61 27.7297 125.763 27.243 125.849 26.7239C125.943 26.2107 125.973 25.6916 125.991 25.1724C125.994 24.9317 125.994 24.6986 125.994 24.4579C126 24.1764 126 23.8963 126 23.6102V7.39048C126 7.10667 126 6.82511 125.994 6.54433C125.994 6.30672 125.994 6.06825 125.991 5.83063C125.973 5.31146 125.943 4.79229 125.849 4.27908C125.763 3.75991 125.61 3.27554 125.376 2.80403C125.14 2.34011 124.837 1.91471 124.473 1.54767C124.112 1.18063 123.694 0.871798 123.237 0.634183C122.767 0.394242 122.291 0.239087 121.779 0.148257C121.275 0.055955 120.762 0.0241025 120.25 0.0112375C120.017 0.00744 119.778 0.002945 119.545 0.001395C119.271 0 118.991 0 118.717 0Z" fill="#A6A6A6"/>
<path d="M6.45437 30.3219C6.22148 30.3219 5.99426 30.3189 5.76321 30.3136C5.33589 30.3014 4.82908 30.2772 4.33465 30.1872C3.86813 30.1016 3.45357 29.9624 3.06844 29.7626C2.66985 29.5575 2.31163 29.2926 2.00071 28.9747C1.68421 28.6599 1.42412 28.2981 1.22074 27.8924C1.02256 27.5012 0.887124 27.0811 0.805726 26.6081C0.712405 26.0867 0.688558 25.5576 0.67847 25.155C0.673654 24.9915 0.667311 24.4473 0.667311 24.4473V6.54433C0.667311 6.54433 0.674037 6.0085 0.67847 5.8511C0.688558 5.44507 0.712404 4.91645 0.804961 4.40022C0.886741 3.9246 1.02218 3.50494 1.22036 3.11209C1.42336 2.70568 1.68383 2.34205 1.9962 2.02872C2.31231 1.70779 2.67207 1.4422 3.06798 1.23628C3.4606 1.03424 3.87447 0.896055 4.3316 0.814758C4.8462 0.721293 5.36799 0.69781 5.76504 0.68758L6.45475 0.678125H119.542L120.239 0.687967C120.631 0.69781 121.153 0.721292 121.66 0.813982C122.12 0.895745 122.537 1.03462 122.937 1.2386C123.329 1.4422 123.688 1.70787 124 2.0257C124.313 2.3405 124.575 2.70607 124.783 3.11403C124.98 3.51021 125.114 3.92987 125.192 4.39192C125.28 4.88087 125.308 5.383 125.325 5.85451C125.327 6.07399 125.327 6.30974 125.327 6.54433C125.333 6.83496 125.333 7.11156 125.333 7.39048V23.6102C125.333 23.8918 125.333 24.1665 125.327 24.4435C125.327 24.6955 125.327 24.9264 125.324 25.164C125.308 25.6204 125.28 26.1222 125.193 26.6005C125.114 27.0758 124.98 27.4958 124.78 27.8947C124.574 28.2973 124.312 28.6614 124.004 28.9686C123.688 29.2926 123.33 29.5567 122.935 29.7611C122.538 29.9654 122.134 30.1008 121.66 30.1872C121.17 30.2772 120.663 30.3014 120.231 30.3136C120.007 30.3189 119.773 30.3219 119.545 30.3219L118.717 30.3234L6.45437 30.3219Z" fill="black"/>
<path fill-rule="evenodd" clip-rule="evenodd" d="M24.5968 22.6518C24.4098 23.1333 23.9785 23.8113 23.3667 24.2888C23.0135 24.5646 22.5919 24.8283 22.0127 25.0023C21.3953 25.1878 20.6348 25.2505 19.6883 25.2505H11.0339C10.0875 25.2505 9.32699 25.1878 8.70951 25.0023C8.13032 24.8283 7.70874 24.5646 7.35548 24.2888C6.74381 23.8112 6.31236 23.1333 6.12541 22.6518C5.74884 21.6816 5.74502 20.5809 5.74502 19.8877V11.112C5.74502 10.4188 5.74884 9.31806 6.12541 8.34791C6.31236 7.8664 6.74373 7.18843 7.35548 6.71088C7.70866 6.43506 8.13032 6.1714 8.70951 5.99741C9.32691 5.81188 10.0874 5.74918 11.0339 5.74918H19.6884C20.6348 5.74918 21.3953 5.81188 22.0128 5.99741C22.592 6.1714 23.0135 6.43513 23.3668 6.71088C23.9785 7.18851 24.4099 7.8664 24.5969 8.34791C24.9734 9.31806 24.9773 10.4188 24.9773 11.112V19.8877C24.9772 20.5808 24.9734 21.6816 24.5968 22.6518Z" fill="url(#paint0_linear)"/>
<path d="M16.7559 16.9582C16.4673 16.6494 15.9604 16.4515 15.3621 16.4515C14.7636 16.4515 14.2567 16.6494 13.9681 16.9582C13.8176 17.1193 13.7379 17.2844 13.7129 17.5197C13.6642 17.9753 13.6915 18.3677 13.7442 18.9949C13.7943 19.5925 13.8896 20.3896 14.0138 21.2013C14.1023 21.779 14.1741 22.0908 14.2395 22.314C14.3456 22.6759 14.7421 22.9923 15.3621 22.9923C15.982 22.9923 16.3784 22.6758 16.4845 22.314C16.5499 22.0908 16.6218 21.779 16.7102 21.2013C16.8345 20.3896 16.9297 19.5925 16.9799 18.9949C17.0325 18.3676 17.0598 17.9753 17.0112 17.5197C16.9861 17.2845 16.9065 17.1193 16.7559 16.9582ZM13.7896 14.209C13.7896 15.0904 14.4943 15.805 15.3635 15.805C16.2328 15.805 16.9375 15.0904 16.9375 14.209C16.9375 13.3275 16.2328 12.613 15.3635 12.613C14.4943 12.613 13.7896 13.3275 13.7896 14.209ZM15.344 7.91058C11.6629 7.9212 8.64661 10.9494 8.60106 14.6818C8.56406 17.7053 10.4675 20.2916 13.1253 21.2396C13.1898 21.2626 13.2553 21.2083 13.2452 21.1397C13.2103 20.9049 13.1775 20.669 13.1473 20.4371C13.1366 20.3551 13.0851 20.2844 13.0104 20.2513C10.9096 19.3207 9.4427 17.1843 9.46625 14.7097C9.49712 11.4621 12.1124 8.81454 15.3151 8.78827C18.5893 8.76145 21.2614 11.4544 21.2614 14.7683C21.2614 17.2182 19.8009 19.3283 17.7165 20.2515C17.6418 20.2846 17.5906 20.3555 17.58 20.4374C17.5498 20.6693 17.5169 20.9052 17.4822 21.1397C17.4719 21.2083 17.5374 21.2626 17.6019 21.2397C20.2344 20.3007 22.1267 17.7546 22.1267 14.7684C22.1266 10.9803 19.0821 7.89973 15.344 7.91058ZM15.2218 11.0567C17.3086 10.9748 19.0319 12.6723 19.0319 14.7704C19.0319 15.8374 18.5861 16.8008 17.8736 17.4792C17.8131 17.5367 17.7806 17.6184 17.7853 17.7023C17.7995 17.9575 17.7943 18.2055 17.7776 18.4856C17.773 18.5602 17.8556 18.6079 17.9165 18.5658C19.1114 17.7378 19.8973 16.3455 19.8973 14.7704C19.8973 12.177 17.7669 10.0785 15.1875 10.1799C12.7903 10.2741 10.8671 12.2782 10.8364 14.7106C10.8162 16.3103 11.607 17.7276 12.8172 18.566C12.878 18.6081 12.9603 18.5603 12.9558 18.4858C12.939 18.2055 12.9339 17.9575 12.948 17.7023C12.9527 17.6185 12.9203 17.5368 12.86 17.4794C12.1252 16.7798 11.6739 15.7774 11.7027 14.6707C11.7533 12.7231 13.3018 11.1321 15.2218 11.0567Z" fill="white"/>
<path d="M35.3283 21.5623H31.7105L30.8417 24.1635H29.3094L32.7361 14.5389H34.3281L37.7548 24.1635H36.1963L35.3283 21.5623ZM32.0852 20.3619H34.9528L33.5392 16.1396H33.4996L32.0852 20.3619Z" fill="white"/>
<path d="M45.1552 20.6555C45.1552 22.836 44.0042 24.2369 42.2674 24.2369C41.2815 24.2369 40.4985 23.7896 40.0902 23.0093H40.0574V26.4847H38.637V17.1469H40.0118V18.3139H40.038C40.4328 17.5609 41.2748 17.0735 42.2413 17.0735C43.9975 17.0735 45.1552 18.4812 45.1552 20.6555ZM43.6952 20.6555C43.6952 19.235 42.9712 18.301 41.8666 18.301C40.7813 18.301 40.0513 19.2546 40.0513 20.6555C40.0513 22.0693 40.7813 23.0161 41.8666 23.0161C42.9713 23.0161 43.6952 22.089 43.6952 20.6555Z" fill="white"/>
<path d="M52.7713 20.6555C52.7713 22.836 51.6203 24.2369 49.8835 24.2369C48.8976 24.2369 48.1146 23.7896 47.7063 23.0093H47.6735V26.4847H46.2531V17.1469H47.6279V18.3139H47.6541C48.0489 17.5609 48.8909 17.0735 49.8574 17.0735C51.6137 17.0735 52.7713 18.4812 52.7713 20.6555ZM51.3114 20.6555C51.3114 19.235 50.5874 18.301 49.4827 18.301C48.3975 18.301 47.6675 19.2546 47.6675 20.6555C47.6675 22.0693 48.3975 23.0161 49.4827 23.0161C50.5874 23.0161 51.3114 22.089 51.3114 20.6555Z" fill="white"/>
<path d="M53.9215 14.5388H55.3426V24.1635H53.9215V14.5388Z" fill="white"/>
<path d="M62.7378 22.1026C62.5468 23.3764 61.3234 24.2505 59.7583 24.2505C57.7453 24.2505 56.4958 22.883 56.4958 20.6889C56.4958 18.488 57.752 17.0606 59.6985 17.0606C61.613 17.0606 62.8169 18.3942 62.8169 20.5216V21.0151H57.9296V21.1021C57.9296 22.3024 58.6731 23.0896 59.7911 23.0896C60.58 23.0896 61.1988 22.7097 61.3891 22.1027H62.7378V22.1026ZM57.9363 20.0085H61.3958C61.3629 18.9346 60.6852 18.2276 59.6985 18.2276C58.7185 18.2276 58.0087 18.9481 57.9363 20.0085Z" fill="white"/>
<path d="M70.3823 14.5388C72.2237 14.5388 73.5067 15.8262 73.5067 17.7009C73.5067 19.5817 72.1975 20.8751 70.3361 20.8751H68.2969V24.1636H66.8236V14.5388H70.3823ZM68.2969 19.6218H69.9875C71.2697 19.6218 71.9997 18.9209 71.9997 17.7077C71.9997 16.4938 71.2697 15.7994 69.9942 15.7994H68.2969V19.6218Z" fill="white"/>
<path d="M74.0254 20.6555C74.0254 18.4479 75.3077 17.0605 77.3072 17.0605C79.3135 17.0605 80.5898 18.4478 80.5898 20.6555C80.5898 22.8692 79.3203 24.2505 77.3072 24.2505C75.295 24.2505 74.0254 22.8693 74.0254 20.6555ZM79.1426 20.6555C79.1426 19.1411 78.4582 18.2473 77.3072 18.2473C76.1563 18.2473 75.4719 19.1479 75.4719 20.6555C75.4719 22.176 76.1563 23.063 77.3072 23.063C78.4582 23.063 79.1426 22.1761 79.1426 20.6555Z" fill="white"/>
<path d="M81.5871 20.6555C81.5871 18.4879 82.7641 17.0734 84.4808 17.0734C85.4743 17.0734 86.2572 17.5403 86.6513 18.3139H86.6782V14.5388H88.1053V24.1634H86.7237V22.9699H86.6976C86.2901 23.7699 85.5004 24.2369 84.4943 24.2369C82.7641 24.2369 81.5871 22.8231 81.5871 20.6555ZM83.0403 20.6555C83.0403 22.0958 83.7643 23.0161 84.8689 23.0161C85.9609 23.0161 86.6909 22.0822 86.6909 20.6555C86.6909 19.241 85.9609 18.301 84.8689 18.301C83.7643 18.3011 83.0403 19.2281 83.0403 20.6555Z" fill="white"/>
<path d="M94.1495 19.5612C94.0249 18.821 93.4524 18.2678 92.5187 18.2678C91.4267 18.2678 90.7027 19.1949 90.7027 20.6556C90.7027 22.1496 91.4334 23.0495 92.5314 23.0495C93.4128 23.0495 93.992 22.603 94.1495 21.7894H95.5176C95.3601 23.2629 94.1958 24.2506 92.5187 24.2506C90.5452 24.2506 89.2562 22.883 89.2562 20.6556C89.2562 18.4744 90.5452 17.0606 92.5052 17.0606C94.2808 17.0606 95.3862 18.1944 95.5049 19.5612H94.1495V19.5612Z" fill="white"/>
<path d="M96.3879 22.1693C96.3879 20.9424 97.315 20.2015 98.9593 20.1016L100.854 19.9948V19.4613C100.854 18.681 100.348 18.2405 99.4862 18.2405C98.6965 18.2405 98.1442 18.6212 98.0323 19.2281H96.7037C96.7433 17.9605 97.9068 17.0605 99.525 17.0605C101.176 17.0605 102.268 17.974 102.268 19.3545V24.1635H100.907V23.0093H100.874C100.472 23.7896 99.5975 24.2838 98.6899 24.2838C97.3351 24.2838 96.3879 23.4301 96.3879 22.1693ZM100.854 21.5358V20.9954L99.1504 21.1021C98.3017 21.1558 97.8218 21.529 97.8218 22.1291C97.8218 22.7429 98.3219 23.1433 99.0847 23.1433C100.078 23.1433 100.854 22.4493 100.854 21.5358Z" fill="white"/>
<path d="M106.233 17.0674C107.766 17.0674 108.864 17.9272 108.897 19.1677H107.561C107.502 18.5478 106.983 18.1679 106.193 18.1679C105.424 18.1679 104.911 18.5275 104.911 19.0746C104.911 19.4947 105.253 19.7747 105.97 19.9548L107.134 20.2287C108.529 20.5686 109.055 21.0885 109.055 22.1163C109.055 23.3832 107.871 24.2505 106.181 24.2505C104.549 24.2505 103.451 23.4028 103.346 22.1223H104.753C104.852 22.7959 105.384 23.1561 106.246 23.1561C107.095 23.1561 107.628 22.8027 107.628 22.2427C107.628 21.809 107.364 21.5758 106.641 21.3889L105.404 21.0824C104.154 20.7751 103.523 20.1281 103.523 19.1547C103.523 17.9143 104.621 17.0674 106.233 17.0674Z" fill="white"/>
<path d="M112.141 15.486V17.1469H113.457V18.2874H112.141V22.1556C112.141 22.7566 112.405 23.0366 112.983 23.0366C113.128 23.0366 113.359 23.0161 113.45 23.0032V24.137C113.293 24.1771 112.977 24.2036 112.661 24.2036C111.26 24.2036 110.714 23.67 110.714 22.3092V18.2874H109.708V17.1469H110.714V15.486H112.141Z" fill="white"/>
<path d="M117.276 17.0674C118.809 17.0674 119.907 17.9272 119.94 19.1677H118.605C118.546 18.5478 118.027 18.1679 117.237 18.1679C116.467 18.1679 115.955 18.5275 115.955 19.0746C115.955 19.4947 116.296 19.7747 117.014 19.9548L118.178 20.2287C119.572 20.5686 120.098 21.0885 120.098 22.1163C120.098 23.3832 118.915 24.2505 117.224 24.2505C115.593 24.2505 114.495 23.4028 114.389 22.1223H115.796C115.896 22.7959 116.428 23.1561 117.29 23.1561C118.138 23.1561 118.671 22.8027 118.671 22.2427C118.671 21.809 118.408 21.5758 117.685 21.3889L116.448 21.0824C115.198 20.7751 114.566 20.1281 114.566 19.1547C114.566 17.9143 115.665 17.0674 117.276 17.0674Z" fill="white"/>
<path d="M29.8333 9.05177C29.8333 7.55206 30.6204 6.62571 31.8878 6.62571C32.8927 6.62571 33.6701 7.28608 33.784 8.22833H33.079C32.9466 7.66111 32.4883 7.29554 31.8878 7.29554C31.069 7.29554 30.557 7.9718 30.557 9.05177C30.557 10.1287 31.069 10.8046 31.8907 10.8046C32.4945 10.8046 32.9528 10.4746 33.079 9.95239H33.784C33.6575 10.8655 32.9085 11.4744 31.8907 11.4744C30.6234 11.4744 29.8333 10.5484 29.8333 9.05177Z" fill="white"/>
<path d="M34.5087 11.3975C34.3949 11.3975 34.3158 11.3752 34.2747 11.3593V10.7149C34.3064 10.7248 34.3728 10.7406 34.4579 10.7406C34.793 10.7406 34.9132 10.3339 34.9542 9.73106L35.0744 7.87268H37.4445V11.3624H36.7649V8.45238H35.6748L35.58 9.76663C35.5137 10.7599 35.2704 11.3975 34.5087 11.3975Z" fill="white"/>
<path d="M38.647 12.6123V12.0193C38.7007 12.0292 38.8048 12.0322 38.8684 12.0322C39.1904 12.0322 39.374 11.8975 39.4909 11.5452L39.5412 11.3753L38.2963 7.87268H39.0356L39.8984 10.6446H39.9521L40.812 7.87268H41.5326L40.2492 11.5067C39.9555 12.3558 39.6301 12.6283 38.9281 12.6283C38.8713 12.6282 38.7101 12.6217 38.647 12.6123Z" fill="white"/>
<path d="M42.3838 7.87261H43.0634V10.7823H44.2487V7.87261H44.9283V10.7823H46.1132V7.87261H46.7929V11.3624H42.3839V7.87261H42.3838Z" fill="white"/>
<path d="M47.7388 10.3755C47.7388 9.74733 48.2001 9.38517 49.0189 9.33371L49.9511 9.27923V8.97799C49.9511 8.6094 49.7107 8.40131 49.2461 8.40131C48.8669 8.40131 48.6046 8.54244 48.5288 8.7892H47.8712C47.941 8.18981 48.497 7.80533 49.2777 7.80533C50.1406 7.80533 50.6272 8.24089 50.6272 8.97807V11.3625H49.973V10.8721H49.9192C49.7139 11.2214 49.3378 11.42 48.8859 11.42C48.2221 11.4199 47.7388 11.0131 47.7388 10.3755ZM49.9511 10.0772V9.78546L49.1103 9.83994C48.6363 9.87211 48.4214 10.0356 48.4214 10.3432C48.4214 10.6573 48.6901 10.8401 49.0598 10.8401C49.5719 10.8402 49.9511 10.5098 49.9511 10.0772Z" fill="white"/>
<path d="M51.7506 11.3624V7.8726H52.4239V10.2729H52.4776L54.0641 7.8726H54.7374V11.3624H54.0641V8.94916H54.0137L52.4239 11.3624H51.7506ZM52.6609 6.2923C52.6609 6.63555 52.8758 6.93028 53.2202 6.93028C53.5711 6.93028 53.783 6.63547 53.786 6.2923H54.3487C54.3487 6.91401 53.8968 7.37567 53.2202 7.37567C52.5439 7.37567 52.095 6.91401 52.095 6.2923H52.6609Z" fill="white"/>
<path d="M58.4461 8.45231H57.3619V11.3624H56.6823V8.45231H55.5985V7.87261H58.4461V8.45231Z" fill="white"/>
<path d="M62.1042 10.4201C61.9493 11.0452 61.3992 11.4297 60.6122 11.4297C59.6262 11.4297 59.0227 10.744 59.0227 9.62845C59.0227 8.51322 59.6389 7.80526 60.6092 7.80526C61.5668 7.80526 62.1453 8.46866 62.1453 9.56451V9.80483H59.7147V9.84343C59.7367 10.4554 60.0875 10.8432 60.6312 10.8432C61.0421 10.8432 61.3235 10.6926 61.45 10.4201H62.1042ZM59.7146 9.29543H61.4529C61.4372 8.7475 61.1084 8.39139 60.6057 8.39139C60.1035 8.39139 59.7526 8.75053 59.7146 9.29543Z" fill="white"/>
<path d="M67.2494 9.84986H65.6625V11.3624H64.9833V7.87268H65.6625V9.26978H67.2494V7.87268H67.9256V11.3624H67.2494V9.84986Z" fill="white"/>
<path d="M68.8743 10.3755C68.8743 9.74733 69.3363 9.38517 70.1543 9.33371L71.0865 9.27923V8.97799C71.0865 8.6094 70.8469 8.40131 70.3819 8.40131C70.0028 8.40131 69.7408 8.54244 69.6646 8.7892H69.007C69.0764 8.18981 69.6332 7.80533 70.4139 7.80533C71.276 7.80533 71.7634 8.24089 71.7634 8.97807V11.3625H71.1089V10.8721H71.0551C70.8498 11.2214 70.4737 11.42 70.0214 11.42C69.3579 11.4199 68.8743 11.0131 68.8743 10.3755ZM71.0865 10.0772V9.78546L70.2461 9.83994C69.7722 9.87211 69.5572 10.0356 69.5572 10.3432C69.5572 10.6573 69.8259 10.8401 70.1954 10.8401C70.7074 10.8402 71.0865 10.5098 71.0865 10.0772Z" fill="white"/>
</g>
<defs>
<linearGradient id="paint0_linear" x1="15.3611" y1="5.74918" x2="15.3611" y2="25.2505" gradientUnits="userSpaceOnUse">
<stop stop-color="#F452FF"/>
<stop offset="1" stop-color="#832BC1"/>
</linearGradient>
<clipPath id="clip0">
<rect width="126" height="31" fill="white"/>
</clipPath>
</defs>
</svg>
